<svg width="329" height="459" viewBox="0 0 329 459" fill="none" xmlns="http://www.w3.org/2000/svg">
<g clip-path="url(#clip0_2212_19728)">
<mask id="path-2-inside-1_2212_19728" fill="white">
<path d="M0.25 7.99999C0.25 3.58171 3.83172 0 8.25 0H320.25C324.668 0 328.25 3.58172 328.25 8V451C328.25 455.418 324.668 459 320.25 459H8.24999C3.83171 459 0.25 455.418 0.25 451V7.99999Z"/>
</mask>
<g clip-path="url(#clip1_2212_19728)">
<path d="M279.75 224C291.9 224 301.75 214.15 301.75 202C301.75 189.85 291.9 180 279.75 180C267.6 180 257.75 189.85 257.75 202C257.75 214.15 267.6 224 279.75 224Z" fill="#CCD4C8"/>
</g>
<g clip-path="url(#clip2_2212_19728)">
<path d="M41.25 210C48.7058 210 54.75 203.956 54.75 196.5C54.75 189.044 48.7058 183 41.25 183C33.7942 183 27.75 189.044 27.75 196.5C27.75 203.956 33.7942 210 41.25 210Z" fill="#CCD4C8"/>
</g>
<g clip-path="url(#clip3_2212_19728)">
<path d="M227.75 157C265.858 157 296.75 126.108 296.75 88C296.75 49.8924 265.858 19 227.75 19C189.642 19 158.75 49.8924 158.75 88C158.75 126.108 189.642 157 227.75 157Z" fill="#CCD4C8"/>
</g>
<g clip-path="url(#clip4_2212_19728)">
<path d="M213.56 372.773C213.56 372.773 218.386 369.227 221.647 365.255C224.908 361.283 225.619 352.627 225.619 352.627C225.619 352.627 227.041 356.884 232.427 358.021C237.813 359.159 245.055 356.884 245.055 356.884C245.055 356.884 241.51 355.462 235.12 351.063C228.731 346.664 229.3 338.862 229.3 338.862C229.3 338.862 230.211 336.964 231.708 333.326C237.687 318.867 235.663 296.781 236.424 296.588C237.185 296.396 238.272 301.255 237.98 312.829C237.762 321.576 236.525 332.381 237.302 332.574C238.08 332.766 242.496 326.368 247.397 314.292C252.289 302.217 249.354 278.392 246.092 262.72C242.831 247.048 234.016 199.397 210.842 177.203C187.668 155.008 164.494 166.431 164.494 166.431C164.494 166.431 140.66 157.726 119.35 175.756C98.0413 193.786 87.2279 239.346 82.9627 260.989C78.6976 282.631 77.7358 301.197 81.2232 312.578C84.7106 323.959 88.658 330.475 90.5229 330.475C92.3879 330.475 91.2171 295.618 92.3795 296.546C93.542 297.475 91.9111 317.93 96.7952 331.177C101.679 344.423 100.191 340.409 100.191 340.409C100.191 340.409 98.1082 346.949 94.8299 350.344C91.5516 353.74 84.5434 356.249 84.4346 357.127C84.3259 358.005 91.8777 359.426 96.2516 358.548C100.625 357.67 103.143 353.405 103.586 353.731C104.029 354.058 103.912 360.513 106.321 364.669C108.729 368.826 116.39 373.86 116.39 373.86L213.576 372.764L213.56 372.773Z" fill="#C4BEB8" stroke="#697065" stroke-width="2.00012" stroke-linecap="round" stroke-linejoin="round"/>
<path d="M261.246 392.634C253.15 390.519 214.363 376.594 214.363 376.594C214.605 374.771 213.869 373.835 212.832 373.049C211.795 372.263 194.643 357.946 194.643 357.946H190.805C189.524 349.34 190.395 328.066 190.395 328.066H137.649C137.649 328.066 138.518 349.34 137.239 357.946H136.486C136.486 357.946 130.147 363.49 123.515 368.14C116.883 372.789 114.609 373.383 114.609 375.265C114.609 375.541 115.002 377.715 114.809 376.711L114.441 376.352C103.569 380.116 69.4481 391.898 63.4016 394.466C56.2345 397.51 39.7342 407.554 39.7342 434.967C39.7342 462.38 39.015 501.617 39.015 501.617H290.182C290.182 501.617 290.717 464.545 290.717 437.643C290.717 410.74 269.334 394.75 261.238 392.634H261.246Z" fill="#FDF7F0"/>
<path d="M108.771 259.684C108.771 259.684 107.149 282.656 116.515 302.133C124 317.696 139.02 335.35 165.44 335.35C189.959 335.35 205.239 315.898 211.519 301.389C220.142 281.469 218.503 259.692 218.503 259.692L206.259 256.172L200.89 254.123L191.265 251.597L184.632 245.601L179.264 237.866L175.316 229.185L172.263 219.953L171.218 214.208L169.453 206.832L167.689 202.851L159.209 201.68L155.813 203.637L152.552 206.38L150.067 209.708L148.37 214.082L147.458 219.501L146.413 224.527L144.782 230.272L142.173 237.063L139.564 241.955L136.561 247.048L132.121 251.095L127.295 254.616L122.595 255.528L116.917 255.595L108.754 259.709L108.771 259.684Z" fill="#FDF7F0"/>
<path d="M179.071 210.478C182.675 224.744 193.171 246.387 204.328 254.265C217.968 263.89 230.872 259.09 231.056 258.53C231.24 257.97 224.875 259.634 213.351 249.498C202.689 240.115 196.734 224.744 196.734 224.744" stroke="#697065" stroke-width="2.00012" stroke-linecap="round" stroke-linejoin="round"/>
<path d="M165.088 200.836C165.088 200.836 169.504 202.115 170.875 211.791C173.827 232.614 185.686 255.804 203.232 253.863" stroke="#697065" stroke-width="2.00012" stroke-linecap="round" stroke-linejoin="round"/>
<path d="M116.942 255.971C116.942 255.971 128.75 257.56 137.331 245.208C148.094 229.712 145.485 219.275 150.218 209.324C153.163 203.127 158.899 202.291 158.899 202.291" stroke="#697065" stroke-width="2.00012" stroke-linecap="round" stroke-linejoin="round"/>
<path d="M104.222 259.558C104.222 259.558 118.088 259.232 127.713 245.534C134.755 235.516 141.739 215.027 141.739 215.027" stroke="#697065" stroke-width="2.00012" stroke-linecap="round" stroke-linejoin="round"/>
<path d="M247.991 324.361C247.991 324.361 252.49 320.347 254.372 310.471C257.274 295.217 242.664 246.78 242.664 246.78" stroke="#697065" stroke-width="2.00012" stroke-linecap="round" stroke-linejoin="round"/>
<path d="M80.0273 323.876C80.0273 323.876 72.5424 316.86 73.9474 299.331C75.3523 281.804 82.9543 260.989 82.9543 260.989" stroke="#697065" stroke-width="2.00012" stroke-linecap="round" stroke-linejoin="round"/>
<path d="M164.159 187.112C164.159 187.112 167.789 185.139 171.82 185.214C178.143 185.34 181.806 188.375 181.806 188.375" stroke="#697065" stroke-width="2.00012" stroke-linecap="round" stroke-linejoin="round"/>
<path d="M155.536 186.778C155.536 186.778 151.472 185.273 148.177 186.218L144.883 187.154" stroke="#697065" stroke-width="2.00012" stroke-linecap="round" stroke-linejoin="round"/>
<path d="M218.954 264.835C218.954 264.835 220.067 260.194 226.121 260.579C232.176 260.964 232.62 265.295 232.937 266.441C233.255 267.587 232.494 277.522 229.944 282.172C227.392 286.821 225.711 289.723 223.194 290.133C220.058 290.643 216.078 287.825 216.078 287.825" fill="#FDF7F0"/>
<path d="M218.954 264.835C218.954 264.835 220.067 260.194 226.121 260.579C232.176 260.964 232.62 265.295 232.937 266.441C233.255 267.587 232.494 277.522 229.944 282.172C227.392 286.821 225.711 289.723 223.194 290.133C220.058 290.643 216.078 287.825 216.078 287.825" stroke="#697065" stroke-width="2.00012" stroke-linecap="round" stroke-linejoin="round"/>
<path d="M220.451 296.973C223.056 296.973 225.168 294.861 225.168 292.257C225.168 289.652 223.056 287.54 220.451 287.54C217.846 287.54 215.735 289.652 215.735 292.257C215.735 294.861 217.846 296.973 220.451 296.973Z" fill="#FDF7F0" stroke="#94B177" stroke-width="2.00012" stroke-miterlimit="10"/>
<path d="M108.646 264.835C108.646 264.835 107.533 260.194 101.478 260.579C95.4236 260.964 94.9804 265.295 94.6626 266.441C94.3448 267.587 95.1058 277.522 97.6566 282.172C100.207 286.821 101.888 289.723 104.406 290.133C107.542 290.643 111.414 288.142 111.414 288.142" fill="#FDF7F0"/>
<path d="M108.646 264.835C108.646 264.835 107.533 260.194 101.478 260.579C95.4236 260.964 94.9804 265.295 94.6626 266.441C94.3448 267.587 95.1058 277.522 97.6566 282.172C100.207 286.821 101.888 289.723 104.406 290.133C107.542 290.643 111.414 288.142 111.414 288.142" stroke="#697065" stroke-width="2.00012" stroke-linecap="round" stroke-linejoin="round"/>
<path d="M106.663 296.973C109.268 296.973 111.38 294.861 111.38 292.257C111.38 289.652 109.268 287.54 106.663 287.54C104.059 287.54 101.947 289.652 101.947 292.257C101.947 294.861 104.059 296.973 106.663 296.973Z" fill="#FDF7F0" stroke="#94B177" stroke-width="2.00012" stroke-miterlimit="10"/>
<path d="M143.904 330.784C130.364 324.528 121.658 312.829 116.507 302.134C107.14 282.657 108.763 259.684 108.763 259.684" stroke="#697065" stroke-width="2.00012" stroke-linecap="round" stroke-linejoin="round"/>
<path d="M218.503 259.684C218.503 259.684 220.142 281.461 211.519 301.381C205.239 315.89 189.959 335.342 165.44 335.342C164.695 335.342 163.95 335.325 163.223 335.3" stroke="#697065" stroke-width="2.00012" stroke-linecap="round" stroke-linejoin="round"/>
<path d="M154.016 305.855C154.016 305.855 157.377 309.2 163.373 309.2C169.37 309.2 172.732 305.855 172.732 305.855" stroke="#697065" stroke-width="2.00012" stroke-linecap="round" stroke-linejoin="round"/>
<path d="M205.641 263.347L218.821 262.561" stroke="#94B177" stroke-width="2.00012" stroke-linecap="round" stroke-linejoin="round"/>
<path d="M155.446 263.439C155.446 263.439 157.645 259.776 163.866 259.776C170.089 259.776 172.397 263.472 172.397 263.472" stroke="#94B177" stroke-width="2.00012" stroke-linecap="round" stroke-linejoin="round"/>
<path d="M108.52 262.853L122.679 263.589" stroke="#94B177" stroke-width="2.00012" stroke-linecap="round" stroke-linejoin="round"/>
<path d="M155.755 267.403C155.755 275.799 148.203 283.434 138.887 283.434C129.57 283.434 122.018 275.791 122.018 267.403C122.018 259.015 128.734 253.88 138.05 253.88C147.366 253.88 155.755 259.015 155.755 267.403Z" stroke="#94B177" stroke-width="2.00012" stroke-linecap="round" stroke-linejoin="round"/>
<path d="M172.481 267.403C172.481 275.799 180.033 283.434 189.35 283.434C198.665 283.434 206.217 275.791 206.217 267.403C206.217 259.007 199.501 253.88 190.186 253.88C180.869 253.88 172.481 259.015 172.481 267.403Z" stroke="#94B177" stroke-width="2.00012" stroke-linecap="round" stroke-linejoin="round"/>
<path d="M190.729 355.279C190.729 355.279 211.519 372.263 212.548 373.049C213.576 373.835 214.321 374.771 214.078 376.594C213.836 378.417 212.038 389.875 208.626 396.698C205.214 403.522 202.202 412.354 201.4 412.354C200.597 412.354 192.72 405.22 189.75 402.569C186.781 399.918 176.704 392.199 175.834 392.802C174.964 393.404 164.719 426.085 164.719 426.085" stroke="#697065" stroke-width="2.00012" stroke-linecap="round" stroke-linejoin="round"/>
<path d="M114.157 376.352C103.285 380.116 69.1637 391.898 63.1172 394.466C55.9502 397.51 39.4498 407.554 39.4498 434.967C39.4498 462.38 38.7306 501.617 38.7306 501.617H168.233C168.233 501.617 169.529 440.904 169.269 437.785C169.01 434.674 165.899 429.221 162.52 421.695C159.142 414.168 154.225 394.959 153.33 393.772C152.435 392.584 144.322 396.841 138.777 401.891C133.233 406.943 127.789 413.867 127.789 413.867C127.789 413.867 123.825 404.066 120.663 396.54C117.502 389.013 114.324 377.138 114.324 375.256C114.324 373.375 116.599 372.781 123.231 368.131C129.863 363.482 136.202 357.938 136.202 357.938" stroke="#697065" stroke-width="2.00012" stroke-linecap="round" stroke-linejoin="round"/>
<path d="M175.834 392.801C175.834 392.801 178.996 390.46 182.408 386.546C185.82 382.624 194.166 369.862 194.476 365.506C194.793 361.149 191.507 357.419 191.507 357.419" stroke="#697065" stroke-width="2.00012" stroke-linecap="round" stroke-linejoin="round"/>
<path d="M152.519 393.638C152.519 393.638 149.357 391.296 145.945 387.383C142.533 383.469 134.186 370.699 133.877 366.342C133.568 361.985 136.846 358.255 136.846 358.255" stroke="#697065" stroke-width="2.00012" stroke-linecap="round" stroke-linejoin="round"/>
<path d="M168.233 501.625H289.906C289.906 501.625 290.441 464.554 290.441 437.651C290.441 410.748 269.058 394.758 260.962 392.643C252.866 390.527 214.078 376.603 214.078 376.603" stroke="#697065" stroke-width="2.00012" stroke-linecap="round" stroke-linejoin="round"/>
<path d="M253.543 440.235L250.106 500.229" stroke="#697065" stroke-width="2.00012" stroke-linecap="round" stroke-linejoin="round"/>
<path d="M75.1099 440.235L78.9318 500.605" stroke="#697065" stroke-width="2.00012" stroke-linecap="round" stroke-linejoin="round"/>
<path d="M139.588 272.612C141.5 272.612 143.05 270.388 143.05 267.645C143.05 264.902 141.5 262.678 139.588 262.678C137.677 262.678 136.127 264.902 136.127 267.645C136.127 270.388 137.677 272.612 139.588 272.612Z" fill="#697065" stroke="#697065" stroke-width="2.00012" stroke-miterlimit="10" stroke-linecap="round"/>
<path d="M189.466 272.612C191.378 272.612 192.928 270.388 192.928 267.645C192.928 264.902 191.378 262.678 189.466 262.678C187.554 262.678 186.004 264.902 186.004 267.645C186.004 270.388 187.554 272.612 189.466 272.612Z" fill="#697065" stroke="#697065" stroke-width="2.00012" stroke-miterlimit="10" stroke-linecap="round"/>
<path d="M137.657 328.058C137.657 328.058 138.853 357.135 136.403 361.065C133.626 365.506 134.931 363.515 134.931 363.515" stroke="#697065" stroke-width="2.00012" stroke-linecap="round" stroke-linejoin="round"/>
<path d="M190.403 328.058C190.403 328.058 189.206 357.135 191.658 361.065C194.434 365.506 193.129 363.515 193.129 363.515" stroke="#697065" stroke-width="2.00012" stroke-linecap="round" stroke-linejoin="round"/>
</g>
<g clip-path="url(#clip5_2212_19728)">
<path d="M75.75 166C104.469 166 127.75 142.719 127.75 114C127.75 85.2812 104.469 62 75.75 62C47.0312 62 23.75 85.2812 23.75 114C23.75 142.719 47.0312 166 75.75 166Z" fill="#CCD4C8"/>
</g>
<g clip-path="url(#clip6_2212_19728)">
<path d="M103.742 146.004H45.7499" stroke="#697065" stroke-width="2.00377" stroke-linecap="round"/>
</g>
<g clip-path="url(#clip7_2212_19728)">
<path d="M65.75 114.993H49.75V146.007" stroke="#697065" stroke-width="2.00047" stroke-linecap="round" stroke-linejoin="round"/>
<path d="M53.75 123.997H62.75" stroke="#697065" stroke-width="2.00047" stroke-linecap="round" stroke-linejoin="round"/>
<path d="M53.75 127.999H62.75" stroke="#697065" stroke-width="2.00047" stroke-linecap="round" stroke-linejoin="round"/>
<path d="M53.75 132.001H62.75" stroke="#697065" stroke-width="2.00047" stroke-linecap="round" stroke-linejoin="round"/>
<path d="M53.75 136.003H62.75" stroke="#697065" stroke-width="2.00047" stroke-linecap="round" stroke-linejoin="round"/>
</g>
<g clip-path="url(#clip8_2212_19728)">
<path d="M99.754 145.859V138.889" stroke="#697065" stroke-width="1.50064" stroke-linecap="round" stroke-linejoin="round"/>
<path d="M99.7539 121C96.439 121 93.7506 127.009 93.7506 131.899C93.7506 136.789 96.439 138.705 99.7539 138.705C103.069 138.705 105.757 136.789 105.757 131.899C105.757 127.009 103.069 121 99.7539 121Z" fill="#F7F7F0" stroke="#697065" stroke-width="2.00085"/>
</g>
<g clip-path="url(#clip9_2212_19728)">
<path d="M73.2002 95.2899V90.7308H75.5473V95.2545L73.2002 95.2899Z" fill="#697065" stroke="#697065" stroke-width="1.00013" stroke-miterlimit="10"/>
<path d="M79.3965 95.2899V90.7308H81.7436V95.2545L79.3965 95.2899Z" fill="#697065" stroke="#697065" stroke-width="1.00013" stroke-miterlimit="10"/>
<path d="M85.3867 95.2899V90.7308H87.7379V95.2545L85.3867 95.2899Z" fill="#697065" stroke="#697065" stroke-width="1.00013" stroke-miterlimit="10"/>
<path d="M73.2002 105.011V100.457H75.5473V104.975L73.2002 105.011Z" fill="#697065" stroke="#697065" stroke-width="1.00013" stroke-miterlimit="10"/>
<path d="M79.3965 105.011V100.457H81.7436V104.975L79.3965 105.011Z" fill="#697065" stroke="#697065" stroke-width="1.00013" stroke-miterlimit="10"/>
<path d="M85.3867 105.011V100.457H87.7379V104.975L85.3867 105.011Z" fill="#697065" stroke="#697065" stroke-width="1.00013" stroke-miterlimit="10"/>
<path d="M73.2002 114.902V110.343H75.5473V114.861L73.2002 114.902Z" fill="#697065" stroke="#697065" stroke-width="1.00013" stroke-miterlimit="10"/>
<path d="M79.3965 114.902V110.343H81.7436V114.861L79.3965 114.902Z" fill="#697065" stroke="#697065" stroke-width="1.00013" stroke-miterlimit="10"/>
<path d="M85.3867 114.902V110.343H87.7379V114.861L85.3867 114.902Z" fill="#697065" stroke="#697065" stroke-width="1.00013" stroke-miterlimit="10"/>
<path d="M73.2002 125.291V120.737H75.5473V125.255L73.2002 125.291Z" fill="#697065" stroke="#697065" stroke-width="1.00013" stroke-miterlimit="10"/>
<path d="M79.3965 125.291V120.737H81.7436V125.255L79.3965 125.291Z" fill="#697065" stroke="#697065" stroke-width="1.00013" stroke-miterlimit="10"/>
<path d="M85.3867 125.291V120.737H87.7379V125.255L85.3867 125.291Z" fill="#697065" stroke="#697065" stroke-width="1.00013" stroke-miterlimit="10"/>
<path d="M68.75 145.039V83.9924H91.75V145.039" stroke="#697065" stroke-width="2.00027" stroke-linecap="round" stroke-linejoin="round"/>
</g>
<path d="M241.458 54.375H193.042C189.222 54.375 186.125 57.4717 186.125 61.2917V109.708C186.125 113.528 189.222 116.625 193.042 116.625H241.458C245.278 116.625 248.375 113.528 248.375 109.708V61.2917C248.375 57.4717 245.278 54.375 241.458 54.375Z" stroke="#697065" stroke-width="2" stroke-linecap="round" stroke-linejoin="round"/>
<path d="M186.125 75.125H248.375" stroke="#697065" stroke-width="2" stroke-linecap="round" stroke-linejoin="round"/>
<path d="M206.875 116.625V75.125" stroke="#697065" stroke-width="2" stroke-linecap="round" stroke-linejoin="round"/>
<g clip-path="url(#clip10_2212_19728)">
<path d="M272.731 97.6774C272.368 98.1914 272.22 98.8299 272.317 99.4557C272.414 100.082 272.75 100.645 273.251 101.025L277.615 104.265C278.124 104.634 278.754 104.787 279.371 104.692C279.988 104.596 280.542 104.259 280.915 103.752L288.399 93.3581C289.996 95.8307 290.815 98.7351 290.745 101.684C290.676 104.633 289.722 107.486 288.009 109.864C286.297 112.242 283.909 114.031 281.162 114.993C278.416 115.955 275.442 116.044 272.637 115.249L258.919 134.3C258.129 135.397 256.941 136.128 255.615 136.334C254.289 136.54 252.935 136.204 251.849 135.398C250.764 134.592 250.037 133.384 249.828 132.039C249.619 130.694 249.945 129.322 250.735 128.225L264.453 109.174C262.855 106.702 262.036 103.797 262.106 100.848C262.175 97.8992 263.13 95.0458 264.842 92.668C266.554 90.2903 268.942 88.5012 271.689 87.5392C274.435 86.5772 277.409 86.488 280.215 87.2835L272.751 97.6499L272.731 97.6774Z" fill="#F7F7F0" stroke="#697065" stroke-width="2.27728" stroke-linecap="round" stroke-linejoin="round"/>
</g>
</g>
<path d="M8.25 0V2H320.25V0V-2H8.25V0ZM328.25 8H326.25V451H328.25H330.25V8H328.25ZM320.25 459V457H8.24999V459V461H320.25V459ZM0.25 451H2.25V7.99999H0.25H-1.75V451H0.25ZM8.24999 459V457C4.93629 457 2.25 454.314 2.25 451H0.25H-1.75C-1.75 456.523 2.72714 461 8.24999 461V459ZM328.25 451H326.25C326.25 454.314 323.564 457 320.25 457V459V461C325.773 461 330.25 456.523 330.25 451H328.25ZM320.25 0V2C323.564 2 326.25 4.68629 326.25 8H328.25H330.25C330.25 2.47715 325.773 -2 320.25 -2V0ZM8.25 0V-2C2.72716 -2 -1.75 2.47714 -1.75 7.99999H0.25H2.25C2.25 4.68629 4.93629 2 8.25 2V0Z" fill="#697065" mask="url(#path-2-inside-1_2212_19728)"/>
<defs>
<clipPath id="clip0_2212_19728">
<path d="M0.25 7.99999C0.25 3.58171 3.83172 0 8.25 0H320.25C324.668 0 328.25 3.58172 328.25 8V451C328.25 455.418 324.668 459 320.25 459H8.24999C3.83171 459 0.25 455.418 0.25 451V7.99999Z" fill="white"/>
</clipPath>
<clipPath id="clip1_2212_19728">
<rect width="44" height="44" fill="white" transform="translate(257.75 180)"/>
</clipPath>
<clipPath id="clip2_2212_19728">
<rect width="27" height="27" fill="white" transform="translate(27.75 183)"/>
</clipPath>
<clipPath id="clip3_2212_19728">
<rect width="138" height="138" fill="white" transform="translate(158.75 19)"/>
</clipPath>
<clipPath id="clip4_2212_19728">
<rect width="253.711" height="340.133" fill="white" transform="translate(37.7305 162.492)"/>
</clipPath>
<clipPath id="clip5_2212_19728">
<rect width="104" height="104" fill="white" transform="translate(23.75 62)"/>
</clipPath>
<clipPath id="clip6_2212_19728">
<rect width="59.9922" height="2.00781" fill="white" transform="translate(44.75 145)"/>
</clipPath>
<clipPath id="clip7_2212_19728">
<rect width="18" height="33.0156" fill="white" transform="translate(48.75 113.992)"/>
</clipPath>
<clipPath id="clip8_2212_19728">
<rect width="14.0078" height="26.6094" fill="white" transform="translate(92.75 120)"/>
</clipPath>
<clipPath id="clip9_2212_19728">
<rect width="25" height="63.0469" fill="white" transform="translate(67.75 82.9922)"/>
</clipPath>
<clipPath id="clip10_2212_19728">
<rect width="57.2361" height="58.0707" fill="white" transform="translate(235.749 87.9959) rotate(-8.83)"/>
</clipPath>
</defs>
</svg>
