<svg width="329" height="459" viewBox="0 0 329 459" fill="none" xmlns="http://www.w3.org/2000/svg">
<g clip-path="url(#clip0_2212_21653)">
<mask id="path-2-inside-1_2212_21653" fill="white">
<path d="M0.25 7.99999C0.25 3.58171 3.83172 0 8.25 0H320.25C324.668 0 328.25 3.58172 328.25 8V451C328.25 455.418 324.668 459 320.25 459H8.24999C3.83171 459 0.25 455.418 0.25 451V7.99999Z"/>
</mask>
<g clip-path="url(#clip1_2212_21653)">
<g clip-path="url(#clip2_2212_21653)">
<path d="M97.2364 391.184C97.2364 391.184 100.072 402.79 101.241 410.095C102.411 417.401 99.55 427.968 100.782 433.635C102.015 439.304 106.931 457.126 106.931 457.126L46.1287 458.071L40.8979 457.932C40.8979 457.932 35.5413 452.926 33.6111 449.002C31.681 445.073 30.7756 437.395 30.0086 432.635C29.2416 427.873 27.1669 404.736 27.1669 404.736C27.1669 404.736 23.4009 389.37 26.7645 383.942C28.0219 381.907 30.6688 379.206 34.177 376.592L34.2461 375.874C34.8811 379.231 38.7414 380.15 40.0303 380.503C41.3191 380.856 37.8423 376.756 39.2191 372.921L39.2821 372.896C41.0928 371.831 42.9851 370.912 44.9468 370.144C44.9468 370.144 44.1608 370.61 44.5569 373.097C44.953 375.585 47.185 380.32 47.185 380.32C47.185 380.32 46.7134 375.264 49.1968 370.673C50.1964 368.827 51.3219 368.267 51.3219 368.267C52.9753 367.933 54.6603 367.713 56.3704 367.612C58.0804 367.511 59.5202 367.486 60.9662 367.492L61.356 367.536C61.356 370.074 60.4758 371.705 59.6648 372.94C58.5896 374.59 62.4751 372.083 64.531 369.879C65.562 368.777 66.0336 367.713 66.0336 367.713C73.1694 368.254 77.8344 369.489 81.7891 367.921C87.2965 365.729 99.1288 356.333 99.1288 356.333C99.1288 356.333 105.177 325.047 109.289 326.344C113.4 327.641 122.567 332.031 123.026 334.89C123.485 337.749 116.249 363.682 113.212 369.06C110.169 374.439 90.4212 399.452 90.4212 399.452" fill="#FDF7F0"/>
</g>
<g clip-path="url(#clip3_2212_21653)">
<path d="M125.685 311.266C125.207 309.767 124.32 307.267 121.339 305.938C120.1 305.384 119.974 303.073 119.54 302.972C118.289 302.689 117.471 302.821 117.471 302.821L116.981 302.947C117.691 300.491 118.874 296.567 119.591 295.011C120.66 292.669 117.622 290.987 116.471 293.582C115.735 295.244 113.899 300.484 112.673 304.049L112.383 304.124C112.383 304.124 111.421 304.88 110.478 305.756C109.534 306.631 107.981 308.206 107.711 311.021C107.44 313.836 109.635 322.281 109.635 322.281L109.044 326.362L117.1 329.039C117.1 329.039 117.415 325.008 118.672 323.843C119.93 322.678 123.817 319.158 124.515 316.758C125.213 314.359 126.408 313.559 125.678 311.266H125.685Z" fill="#FDF7F0"/>
</g>
<g clip-path="url(#clip4_2212_21653)">
<path d="M77.5008 308.648L79.0352 310.002L78.8529 314.441L80.5131 318.137L82.9153 321.77L85.4433 322.167L88.8203 323.433L86.6318 326.203L86.3677 340.704L82.3367 344.381L74.4446 346.119L73.2121 349.935L73.3378 354.733L74.4446 362.364L75.4256 366.18L75.8784 368.484L64.5401 367.597L54.0633 367.521L50.6172 368.27L52.6987 365.261L53.0634 361.848L52.334 359.103L58.742 334.571L58.1761 331.045V327.078L60.3582 324.088H63.515L66.565 323.036L71.9229 318.175L76.3689 311.784L77.5008 308.648Z" fill="#FDF7F0"/>
</g>
<g clip-path="url(#clip5_2212_21653)">
<path d="M47.0235 365.943C47.0235 365.943 44.4511 370.608 44.8536 373.094C45.2562 375.581 47.4826 380.315 47.4826 380.315C47.4826 380.315 47.0109 375.26 49.4952 370.671C50.8223 368.215 52.1368 368.606 53.1557 365.76C54.1745 362.915 53.6336 361.108 52.9229 359.477C52.5078 358.533 60.3318 360.138 61.3256 364.677C62.2628 368.946 61.0489 371.294 59.9734 372.943C58.8979 374.593 62.7847 372.087 64.8414 369.884C66.898 367.68 67.1811 364.721 66.7973 362.864C66.1873 359.88 63.3445 358.054 63.3445 358.054C63.3445 358.054 67.2439 360.705 71.3257 361.284C74.4201 361.725 86.3889 358.313 80.4013 358.722C76.7724 358.974 71.7408 356.644 67.1873 352.558L65.8855 351.318C65.8855 351.318 61.2752 345.709 60.0866 341.271C59.1054 337.594 59.0426 332.18 59.0426 332.18C58.1242 329.378 58.5771 325.418 61.4577 324.027C64.3382 322.629 69.2754 326.344 69.2754 326.344L66.5773 323.051C70.0364 321.408 76.0931 315.616 78.4328 307.942C80.2127 302.1 79.0869 295.565 69.4766 288.873C59.8665 282.181 48.1555 287.513 48.1555 287.513C48.1555 287.513 43.9291 286.134 34.7969 289.735C25.6647 293.336 20.4445 301.955 19.0482 313.841C17.652 325.727 19.8281 330.216 19.6205 334.352C19.2369 341.932 15.3438 348.838 15.3438 348.838C15.3438 348.838 19.0985 347.893 20.4885 346.59C22.1111 345.073 23.6961 342.75 23.6961 342.75C23.6961 342.75 23.608 350.355 26.4697 354.768C29.3314 359.181 34.539 360.95 34.539 360.95L34.8095 361.58C33.0988 365.219 30.237 369.135 27.7464 370.224C25.6835 371.124 32.3377 369.525 33.9855 368.568C39.1428 365.565 40.5957 360.938 40.5957 360.938C40.5957 360.938 41.709 363.569 38.4573 367.674C36.9856 369.531 34.5705 372.27 34.4698 374.612C34.2811 378.981 38.9039 380.082 40.3378 380.479C41.7718 380.876 37.0737 375.48 40.4384 371.288C42.7529 368.404 46.1492 368.19 47.036 365.924C47.9229 363.657 47.3568 359.37 47.3568 359.37" fill="#C4BEB8"/>
</g>
<g clip-path="url(#clip6_2212_21653)">
<path d="M65.6733 367.708C72.813 368.249 77.4804 369.483 81.4371 367.915C86.9475 365.725 98.7861 356.332 98.7861 356.332C98.7861 356.332 104.837 325.056 108.951 326.353C113.065 327.65 122.237 332.038 122.696 334.896C123.155 337.754 115.915 363.679 112.877 369.055C109.832 374.431 90.0738 399.437 90.0738 399.437" stroke="#697065" stroke-width="1.89327" stroke-linecap="round" stroke-linejoin="round"/>
</g>
<g clip-path="url(#clip7_2212_21653)">
<path d="M60.6148 367.503C59.173 367.49 57.6429 367.522 56.0121 367.624C54.2995 367.726 52.612 367.95 50.9561 368.289" stroke="#697065" stroke-width="1.90874" stroke-linecap="round" stroke-linejoin="round"/>
</g>
<g clip-path="url(#clip8_2212_21653)">
<path d="M38.9121 372.921C40.7314 371.849 42.6327 370.923 44.6036 370.149" stroke="#697065" stroke-width="1.90449" stroke-linecap="round" stroke-linejoin="round"/>
</g>
<g clip-path="url(#clip9_2212_21653)">
<path d="M96.8872 391.197C96.8872 391.197 99.7234 402.801 100.893 410.104C102.063 417.408 99.2015 427.973 100.434 433.64C101.667 439.306 106.584 457.125 106.584 457.125L45.766 458.069C45.766 458.069 48.2878 451.471 48.2627 447.24C48.2375 443.009 46.6967 435.434 41.0558 424.611C35.4148 413.788 33.2515 404.356 33.2515 404.356" stroke="#697065" stroke-width="1.89314" stroke-linecap="round" stroke-linejoin="round"/>
</g>
<g clip-path="url(#clip10_2212_21653)">
<path d="M98.7827 356.338C98.7827 356.338 104.116 357.113 106.373 359.029" stroke="#697065" stroke-width="1.89409" stroke-linecap="round" stroke-linejoin="round"/>
</g>
<g clip-path="url(#clip11_2212_21653)">
<path d="M108.961 326.349L109.552 322.265C109.552 322.265 107.356 313.814 107.627 310.997C107.897 308.18 109.452 306.604 110.396 305.728C111.34 304.852 112.303 304.096 112.303 304.096" stroke="#697065" stroke-width="1.89475" stroke-linecap="round" stroke-linejoin="round"/>
</g>
<g clip-path="url(#clip12_2212_21653)">
<path d="M116.995 329.037C116.995 329.037 117.309 325.004 118.569 323.839C119.828 322.673 123.718 319.151 124.417 316.75C125.116 314.35 126.312 313.549 125.582 311.256C125.103 309.756 124.216 307.255 121.232 305.925C119.991 305.371 119.865 303.058 119.431 302.957C118.178 302.674 117.36 302.806 117.36 302.806" stroke="#697065" stroke-width="1.89489" stroke-linecap="round" stroke-linejoin="round"/>
</g>
<g clip-path="url(#clip13_2212_21653)">
<path d="M111.396 307.522C111.396 307.522 115.219 296.178 116.366 293.583C117.512 290.989 120.539 292.67 119.474 295.013C118.409 297.356 116.278 305.053 116.278 305.053" stroke="#697065" stroke-width="1.89009" stroke-linecap="round" stroke-linejoin="round"/>
</g>
<g clip-path="url(#clip14_2212_21653)">
<path d="M86.2821 322.846L87.8659 323.255C88.419 323.4 88.5824 324.099 88.1551 324.477L86.2884 326.128C86.2884 326.128 86.3827 328.875 86.7723 334.513C87.1621 340.152 85.7164 342.974 82.3225 344.385C78.9285 345.797 71.2041 345.998 71.2041 345.998" stroke="#697065" stroke-width="1.89316" stroke-linecap="round" stroke-linejoin="round"/>
</g>
<g clip-path="url(#clip15_2212_21653)">
<path d="M68.6233 326.335C68.6233 326.335 63.6797 322.633 60.8053 324.022C57.9247 325.417 57.4718 329.365 58.3901 332.162C59.3084 334.958 64.7741 339.05 67.3026 337.403" stroke="#697065" stroke-width="1.89162" stroke-linecap="round" stroke-linejoin="round"/>
</g>
<g clip-path="url(#clip16_2212_21653)">
<path d="M65.912 323.045C69.3683 321.402 75.4202 315.613 77.758 307.942C79.5365 302.102 78.4115 295.569 68.809 288.88C59.2066 282.19 47.5051 287.521 47.5051 287.521C47.5051 287.521 43.282 286.142 34.1572 289.742C25.0323 293.342 19.8163 301.957 18.4212 313.838C17.0261 325.719 19.2005 330.206 18.9931 334.341C18.6097 341.918 14.7197 348.821 14.7197 348.821C14.7197 348.821 18.4715 347.877 19.8603 346.574C21.4817 345.058 23.0653 342.736 23.0653 342.736C23.0653 342.736 22.9774 350.338 25.8368 354.749C28.6961 359.161 33.8996 360.929 33.8996 360.929" stroke="#697065" stroke-width="1.892" stroke-linecap="round" stroke-linejoin="round"/>
</g>
<g clip-path="url(#clip17_2212_21653)">
<path d="M65.5444 293.595C65.5444 293.595 70.7366 297.888 69.8492 306.885C68.9618 315.881 63.7759 323.241 63.7759 323.241" stroke="#697065" stroke-width="1.89378" stroke-linecap="round" stroke-linejoin="round"/>
</g>
<g clip-path="url(#clip18_2212_21653)">
<path d="M81.6002 314.449L65.2202 324.559" stroke="#6D8A50" stroke-width="1.89524" stroke-linecap="round" stroke-linejoin="round"/>
</g>
<g clip-path="url(#clip19_2212_21653)">
<path d="M84.3682 321.933C84.3682 321.933 89.7616 322.62 86.7121 314.254C83.6562 305.881 80.5689 307.935 80.5689 307.935C80.5689 307.935 76.9333 309.119 79.7372 316.307C82.1882 322.601 84.3745 321.939 84.3745 321.939L84.3682 321.933Z" stroke="#6D8A50" stroke-width="1.89547" stroke-linecap="round" stroke-linejoin="round"/>
</g>
<g clip-path="url(#clip20_2212_21653)">
<path d="M33.7974 344.048C33.7974 344.048 36.124 353.097 35.6335 357.071C35.1431 361.045 30.7162 368.664 27.0817 370.251C25.0192 371.152 31.672 369.552 33.3195 368.595C38.4757 365.591 39.9283 360.963 39.9283 360.963C39.9283 360.963 41.0413 363.595 37.7904 367.701C36.319 369.558 33.9043 372.298 33.8037 374.64C33.6151 379.011 38.2368 380.113 39.6705 380.509C41.1042 380.906 36.407 375.509 39.7711 371.315C42.0852 368.431 45.4807 368.217 46.3673 365.95C47.254 363.683 46.688 359.395 46.688 359.395" stroke="#697065" stroke-width="1.8932" stroke-linecap="round" stroke-linejoin="round"/>
</g>
<g clip-path="url(#clip21_2212_21653)">
<path d="M54.8453 323.509C54.8453 323.509 53.6316 332.735 58.7949 342.647C63.9584 352.559 73.7569 359.159 79.7379 358.75C85.7189 358.341 73.7569 361.754 70.6626 361.313C66.5809 360.727 62.6816 358.082 62.6816 358.082C62.6816 358.082 65.5181 359.909 66.1344 362.894C66.5181 364.751 66.2351 367.705 64.1785 369.915C62.1219 372.126 58.2352 374.626 59.3106 372.976C60.3861 371.326 61.5999 368.977 60.6628 364.707C59.6692 360.173 51.8454 358.561 52.2605 359.506C52.9712 361.13 53.512 362.944 52.4932 365.79C51.4743 368.637 50.1662 368.24 48.8329 370.702C46.3487 375.293 46.8204 380.35 46.8204 380.35C46.8204 380.35 44.5877 375.608 44.1915 373.127C43.7953 370.646 46.3612 365.973 46.3612 365.973" stroke="#697065" stroke-width="1.89339" stroke-linecap="round" stroke-linejoin="round"/>
</g>
<g clip-path="url(#clip22_2212_21653)">
<path d="M117.457 277.107C120.491 277.107 122.951 274.642 122.951 271.602C122.951 268.561 120.491 266.096 117.457 266.096C114.423 266.096 111.963 268.561 111.963 271.602C111.963 274.642 114.423 277.107 117.457 277.107Z" fill="#FDF7F0" stroke="#697065" stroke-width="1.8953" stroke-linecap="round" stroke-linejoin="round"/>
</g>
<g clip-path="url(#clip23_2212_21653)">
<path d="M125.527 174.372C128.561 174.372 131.021 171.908 131.021 168.867C131.021 165.827 128.561 163.362 125.527 163.362C122.493 163.362 120.033 165.827 120.033 168.867C120.033 171.908 122.493 174.372 125.527 174.372Z" stroke="#697065" stroke-width="1.8953" stroke-linecap="round" stroke-linejoin="round"/>
</g>
<g clip-path="url(#clip24_2212_21653)">
<path d="M191.082 231.24C194.116 231.24 196.576 228.775 196.576 225.734C196.576 222.694 194.116 220.229 191.082 220.229C188.048 220.229 185.588 222.694 185.588 225.734C185.588 228.775 188.048 231.24 191.082 231.24Z" fill="#FDF7F0" stroke="#697065" stroke-width="1.8953" stroke-linecap="round" stroke-linejoin="round"/>
</g>
<g clip-path="url(#clip25_2212_21653)">
<path d="M177.027 167.443C180.061 167.443 182.521 164.978 182.521 161.937C182.521 158.897 180.061 156.432 177.027 156.432C173.993 156.432 171.533 158.897 171.533 161.937C171.533 164.978 173.993 167.443 177.027 167.443Z" fill="#C3D8AE" stroke="#697065" stroke-width="1.8953" stroke-linecap="round" stroke-linejoin="round"/>
</g>
<g clip-path="url(#clip26_2212_21653)">
<path d="M222.144 107.654C225.179 107.654 227.638 105.189 227.638 102.148C227.638 99.1079 225.179 96.6432 222.144 96.6432C219.11 96.6432 216.65 99.1079 216.65 102.148C216.65 105.189 219.11 107.654 222.144 107.654Z" fill="#F7F7F0" stroke="#697065" stroke-width="1.8953" stroke-linecap="round" stroke-linejoin="round"/>
</g>
<g clip-path="url(#clip27_2212_21653)">
<path d="M294.117 161.994C297.153 161.994 299.614 159.539 299.614 156.512C299.614 153.484 297.153 151.03 294.117 151.03C291.081 151.03 288.62 153.484 288.62 156.512C288.62 159.539 291.081 161.994 294.117 161.994Z" fill="#C3D8AE" stroke="#697065" stroke-width="1.89185" stroke-linecap="round" stroke-linejoin="round"/>
</g>
<g clip-path="url(#clip28_2212_21653)">
<path d="M308.308 88.2473C311.332 88.2473 313.782 85.7826 313.782 82.7421C313.782 79.7017 311.332 77.2369 308.308 77.2369C305.285 77.2369 302.834 79.7017 302.834 82.7421C302.834 85.7826 305.285 88.2473 308.308 88.2473Z" fill="#6D8A50" stroke="#697065" stroke-width="1.89185" stroke-linecap="round" stroke-linejoin="round"/>
</g>
<g clip-path="url(#clip29_2212_21653)">
<path d="M298.913 84.041L230.986 99.0606" stroke="#697065" stroke-width="1.89341" stroke-linecap="round" stroke-linejoin="round"/>
</g>
<g clip-path="url(#clip30_2212_21653)">
<path d="M296.509 147.295L308.249 92.4393" stroke="#697065" stroke-width="1.89304" stroke-linecap="round" stroke-linejoin="round"/>
</g>
<g clip-path="url(#clip31_2212_21653)">
<path d="M229.478 108.704L284.897 151.225" stroke="#697065" stroke-width="1.89306" stroke-linecap="round" stroke-linejoin="round"/>
</g>
<g clip-path="url(#clip32_2212_21653)">
<path d="M284.772 163.329L198.83 220.148" stroke="#697065" stroke-width="1.89268" stroke-linecap="round" stroke-linejoin="round"/>
</g>
<g clip-path="url(#clip33_2212_21653)">
<path d="M216.358 111.15L183.118 153.873" stroke="#697065" stroke-width="1.89348" stroke-linecap="round" stroke-linejoin="round"/>
</g>
<g clip-path="url(#clip34_2212_21653)">
<path d="M288.988 189.119C290.928 191.292 294.914 191.469 294.914 191.469C294.914 191.469 291.329 191.217 288.893 193.553C286.458 195.89 286.552 199.499 286.552 199.499C286.552 199.499 286.928 196.035 284.474 193.459C282.019 190.883 278.547 191.11 278.547 191.11C278.547 191.11 282.377 191.128 284.568 189.025C286.759 186.921 286.91 183.08 286.91 183.08C286.91 183.08 287.048 186.947 288.988 189.119Z" fill="#FDF7F0" stroke="#697065" stroke-width="1.89184" stroke-linecap="round" stroke-linejoin="round"/>
</g>
<g clip-path="url(#clip35_2212_21653)">
<path d="M194.593 82.7283C198.39 86.9672 206.179 87.3136 206.179 87.3136C206.179 87.3136 199.169 86.8161 194.404 91.3825C189.639 95.949 189.828 102.991 189.828 102.991C189.828 102.991 190.569 96.2261 185.767 91.1935C180.964 86.161 174.181 86.6082 174.181 86.6082C174.181 86.6082 181.674 86.646 185.955 82.5394C190.236 78.4327 190.532 70.9312 190.532 70.9312C190.532 70.9312 190.802 78.4894 194.593 82.7283Z" fill="#FDF7F0" stroke="#697065" stroke-width="1.89314" stroke-linecap="round" stroke-linejoin="round"/>
</g>
<g clip-path="url(#clip36_2212_21653)">
<path d="M93.2708 240.912C95.8428 243.791 101.132 244.025 101.132 244.025C101.132 244.025 96.3774 243.684 93.145 246.785C89.9127 249.885 90.0385 254.662 90.0385 254.662C90.0385 254.662 90.5415 250.068 87.2841 246.659C84.0266 243.25 79.4233 243.546 79.4233 243.546C79.4233 243.546 84.5045 243.571 87.4098 240.785C90.3152 238 90.5164 232.908 90.5164 232.908C90.5164 232.908 90.6988 238.038 93.2708 240.912Z" fill="#FDF7F0" stroke="#697065" stroke-width="1.89395" stroke-linecap="round" stroke-linejoin="round"/>
</g>
<g clip-path="url(#clip37_2212_21653)">
<path d="M74.2524 361.128C75.3635 366.474 76.5682 368.169 76.5682 368.169" stroke="#697065" stroke-width="1.88729" stroke-linecap="round" stroke-linejoin="round"/>
</g>
<g clip-path="url(#clip38_2212_21653)">
<path d="M74.2571 346.696C74.2571 346.696 72.7305 350.107 73.497 356.695" stroke="#697065" stroke-width="1.89942" stroke-linecap="round" stroke-linejoin="round"/>
</g>
<g clip-path="url(#clip39_2212_21653)">
<path d="M166.061 164.876L134.837 168.577" stroke="#697065" stroke-width="1.89289" stroke-linecap="round" stroke-linejoin="round"/>
</g>
<g clip-path="url(#clip40_2212_21653)">
<path d="M177.643 171.837L187.186 215.101" stroke="#697065" stroke-width="1.89308" stroke-linecap="round" stroke-linejoin="round"/>
</g>
<g clip-path="url(#clip41_2212_21653)">
<path d="M133.392 177.829L180.233 218.756" stroke="#697065" stroke-width="1.89337" stroke-linecap="round" stroke-linejoin="round"/>
</g>
<g clip-path="url(#clip42_2212_21653)">
<path d="M181.225 231.705L127.643 266.834" stroke="#697065" stroke-width="1.89366" stroke-linecap="round" stroke-linejoin="round"/>
</g>
<g clip-path="url(#clip43_2212_21653)">
<path d="M125.09 179.47L117.261 260.179" stroke="#697065" stroke-width="1.89493" stroke-linecap="round" stroke-linejoin="round"/>
</g>
<g clip-path="url(#clip44_2212_21653)">
<path d="M46.4726 320.821C46.4726 320.821 45.7457 329.498 47.8261 338.031C49.9066 346.563 55.9473 351.679 55.9473 351.679" stroke="#697065" stroke-width="1.88919" stroke-linecap="round" stroke-linejoin="round"/>
</g>
<g clip-path="url(#clip45_2212_21653)">
<path d="M65.2255 351.327C65.2255 351.327 60.6165 345.715 59.4281 341.275C58.4472 337.597 58.3843 332.181 58.3843 332.181" stroke="#697065" stroke-width="1.89326" stroke-linecap="round" stroke-linejoin="round"/>
</g>
<g clip-path="url(#clip46_2212_21653)">
<path d="M45.7795 458.062L40.5445 457.923C40.5445 457.923 35.1839 452.919 33.2522 448.997C31.3206 445.069 30.4146 437.395 29.647 432.636C28.8793 427.878 26.803 404.75 26.803 404.75C26.803 404.75 23.0341 389.391 26.4003 383.964C27.6587 381.931 30.3076 379.231 33.8185 376.618" stroke="#697065" stroke-width="1.89342" stroke-linecap="round" stroke-linejoin="round"/>
</g>
<g clip-path="url(#clip47_2212_21653)">
<path d="M68.1874 340.706C69.4941 340.706 70.5534 339.643 70.5534 338.332C70.5534 337.021 69.4941 335.958 68.1874 335.958C66.8806 335.958 65.8213 337.021 65.8213 338.332C65.8213 339.643 66.8806 340.706 68.1874 340.706Z" fill="#FDF7F0" stroke="#6D8A50" stroke-width="1.8962"/>
</g>
</g>
</g>
<path d="M8.25 0V2H320.25V0V-2H8.25V0ZM328.25 8H326.25V451H328.25H330.25V8H328.25ZM320.25 459V457H8.24999V459V461H320.25V459ZM0.25 451H2.25V7.99999H0.25H-1.75V451H0.25ZM8.24999 459V457C4.93629 457 2.25 454.314 2.25 451H0.25H-1.75C-1.75 456.523 2.72714 461 8.24999 461V459ZM328.25 451H326.25C326.25 454.314 323.564 457 320.25 457V459V461C325.773 461 330.25 456.523 330.25 451H328.25ZM320.25 0V2C323.564 2 326.25 4.68629 326.25 8H328.25H330.25C330.25 2.47715 325.773 -2 320.25 -2V0ZM8.25 0V-2C2.72716 -2 -1.75 2.47714 -1.75 7.99999H0.25H2.25C2.25 4.68629 4.93629 2 8.25 2V0Z" fill="#697065" mask="url(#path-2-inside-1_2212_21653)"/>
<defs>
<clipPath id="clip0_2212_21653">
<path d="M0.25 7.99999C0.25 3.58171 3.83172 0 8.25 0H320.25C324.668 0 328.25 3.58172 328.25 8V451C328.25 455.418 324.668 459 320.25 459H8.24999C3.83171 459 0.25 455.418 0.25 451V7.99999Z" fill="white"/>
</clipPath>
<clipPath id="clip1_2212_21653">
<rect width="301" height="389" fill="white" transform="translate(13.75 70)"/>
</clipPath>
<clipPath id="clip2_2212_21653">
<rect width="97.6797" height="131.766" fill="white" transform="translate(25.3672 326.305)"/>
</clipPath>
<clipPath id="clip3_2212_21653">
<rect width="18.2188" height="36.7656" fill="white" transform="translate(107.688 292.273)"/>
</clipPath>
<clipPath id="clip4_2212_21653">
<rect width="38.2031" height="59.8359" fill="white" transform="translate(50.6172 308.648)"/>
</clipPath>
<clipPath id="clip5_2212_21653">
<rect width="66.7109" height="95" fill="white" transform="translate(15.3438 285.5)"/>
</clipPath>
<clipPath id="clip6_2212_21653">
<rect width="58.9375" height="75.0156" fill="white" transform="translate(64.7266 325.367)"/>
</clipPath>
<clipPath id="clip7_2212_21653">
<rect width="11.5547" height="2.71094" fill="white" transform="translate(50.0078 366.539)"/>
</clipPath>
<clipPath id="clip8_2212_21653">
<rect width="7.59375" height="4.67969" fill="white" transform="translate(37.9609 369.195)"/>
</clipPath>
<clipPath id="clip9_2212_21653">
<rect width="75.2266" height="68.7656" fill="white" transform="translate(32.3047 390.25)"/>
</clipPath>
<clipPath id="clip10_2212_21653">
<rect width="9.48438" height="4.58594" fill="white" transform="translate(97.8359 355.391)"/>
</clipPath>
<clipPath id="clip11_2212_21653">
<rect width="6.59375" height="24.1484" fill="white" transform="translate(106.656 303.148)"/>
</clipPath>
<clipPath id="clip12_2212_21653">
<rect width="10.7109" height="28.1562" fill="white" transform="translate(116.047 301.828)"/>
</clipPath>
<clipPath id="clip13_2212_21653">
<rect width="10.1875" height="17.1406" fill="white" transform="translate(110.453 291.328)"/>
</clipPath>
<clipPath id="clip14_2212_21653">
<rect width="19.0859" height="25.0469" fill="white" transform="translate(70.2578 321.898)"/>
</clipPath>
<clipPath id="clip15_2212_21653">
<rect width="12.5547" height="15.9609" fill="white" transform="translate(57.0156 322.766)"/>
</clipPath>
<clipPath id="clip16_2212_21653">
<rect width="65.6328" height="77.3125" fill="white" transform="translate(13.7734 284.562)"/>
</clipPath>
<clipPath id="clip17_2212_21653">
<rect width="8.07031" height="31.5391" fill="white" transform="translate(62.8281 292.648)"/>
</clipPath>
<clipPath id="clip18_2212_21653">
<rect width="18.2734" height="12.0078" fill="white" transform="translate(64.2734 313.5)"/>
</clipPath>
<clipPath id="clip19_2212_21653">
<rect width="10.8672" height="16.1406" fill="white" transform="translate(77.7266 306.766)"/>
</clipPath>
<clipPath id="clip20_2212_21653">
<rect width="22.0703" height="38.375" fill="white" transform="translate(25.7422 343.102)"/>
</clipPath>
<clipPath id="clip21_2212_21653">
<rect width="39.1328" height="58.7344" fill="white" transform="translate(43.2031 322.562)"/>
</clipPath>
<clipPath id="clip22_2212_21653">
<rect width="12.8828" height="12.9062" fill="white" transform="translate(111.016 265.148)"/>
</clipPath>
<clipPath id="clip23_2212_21653">
<rect width="12.8828" height="12.9062" fill="white" transform="translate(119.086 162.414)"/>
</clipPath>
<clipPath id="clip24_2212_21653">
<rect width="12.8828" height="12.9062" fill="white" transform="translate(184.641 219.281)"/>
</clipPath>
<clipPath id="clip25_2212_21653">
<rect width="12.8828" height="12.9062" fill="white" transform="translate(170.586 155.484)"/>
</clipPath>
<clipPath id="clip26_2212_21653">
<rect width="12.8828" height="12.9062" fill="white" transform="translate(215.703 95.6953)"/>
</clipPath>
<clipPath id="clip27_2212_21653">
<rect width="12.8906" height="12.8516" fill="white" transform="translate(287.672 150.086)"/>
</clipPath>
<clipPath id="clip28_2212_21653">
<rect width="12.8359" height="12.9062" fill="white" transform="translate(301.891 76.2891)"/>
</clipPath>
<clipPath id="clip29_2212_21653">
<rect width="69.8203" height="16.9141" fill="white" transform="translate(230.039 83.0938)"/>
</clipPath>
<clipPath id="clip30_2212_21653">
<rect width="13.6328" height="56.75" fill="white" transform="translate(295.562 91.4922)"/>
</clipPath>
<clipPath id="clip31_2212_21653">
<rect width="57.3125" height="44.4141" fill="white" transform="translate(228.531 107.758)"/>
</clipPath>
<clipPath id="clip32_2212_21653">
<rect width="87.8359" height="58.7109" fill="white" transform="translate(197.883 162.383)"/>
</clipPath>
<clipPath id="clip33_2212_21653">
<rect width="35.1328" height="44.6172" fill="white" transform="translate(182.172 110.203)"/>
</clipPath>
<clipPath id="clip34_2212_21653">
<rect width="18.2578" height="18.3125" fill="white" transform="translate(277.602 182.133)"/>
</clipPath>
<clipPath id="clip35_2212_21653">
<rect width="33.8906" height="33.9531" fill="white" transform="translate(173.234 69.9844)"/>
</clipPath>
<clipPath id="clip36_2212_21653">
<rect width="23.6016" height="23.6484" fill="white" transform="translate(78.4766 231.961)"/>
</clipPath>
<clipPath id="clip37_2212_21653">
<rect width="4.19531" height="8.9375" fill="white" transform="translate(73.3125 360.18)"/>
</clipPath>
<clipPath id="clip38_2212_21653">
<rect width="2.88281" height="11.8906" fill="white" transform="translate(72.3281 345.75)"/>
</clipPath>
<clipPath id="clip39_2212_21653">
<rect width="33.1172" height="5.59375" fill="white" transform="translate(133.891 163.93)"/>
</clipPath>
<clipPath id="clip40_2212_21653">
<rect width="11.4375" height="45.1562" fill="white" transform="translate(176.695 170.891)"/>
</clipPath>
<clipPath id="clip41_2212_21653">
<rect width="48.7344" height="42.8203" fill="white" transform="translate(132.445 176.883)"/>
</clipPath>
<clipPath id="clip42_2212_21653">
<rect width="55.4766" height="37.0234" fill="white" transform="translate(126.695 230.758)"/>
</clipPath>
<clipPath id="clip43_2212_21653">
<rect width="9.72656" height="82.6016" fill="white" transform="translate(116.312 178.523)"/>
</clipPath>
<clipPath id="clip44_2212_21653">
<rect width="11.4844" height="32.75" fill="white" transform="translate(45.4062 319.875)"/>
</clipPath>
<clipPath id="clip45_2212_21653">
<rect width="8.73438" height="21.0391" fill="white" transform="translate(57.4375 331.234)"/>
</clipPath>
<clipPath id="clip46_2212_21653">
<rect width="22.6719" height="83.3359" fill="white" transform="translate(24.0547 375.672)"/>
</clipPath>
<clipPath id="clip47_2212_21653">
<rect width="6.625" height="6.64844" fill="white" transform="translate(64.875 335.008)"/>
</clipPath>
</defs>
</svg>
