<svg width="329" height="459" viewBox="0 0 329 459" fill="none" xmlns="http://www.w3.org/2000/svg">
<g clip-path="url(#clip0_2212_21448)">
<mask id="path-2-inside-1_2212_21448" fill="white">
<path d="M0.25 7.99999C0.25 3.58171 3.83172 0 8.25 0H320.25C324.668 0 328.25 3.58172 328.25 8V451C328.25 455.418 324.668 459 320.25 459H8.24999C3.83171 459 0.25 455.418 0.25 451V7.99999Z"/>
</mask>
<g clip-path="url(#clip1_2212_21448)">
<path d="M278.212 399.589C278.212 399.589 280.469 397.933 281.98 396.091C283.491 394.249 283.83 390.226 283.83 390.226C283.83 390.226 284.492 392.204 287.005 392.728C289.517 393.252 292.895 392.204 292.895 392.204C292.895 392.204 291.231 391.545 288.261 389.5C285.29 387.455 285.545 383.838 285.545 383.838C285.545 383.838 285.969 382.959 286.665 381.269C289.449 374.542 288.515 364.284 288.872 364.199C289.228 364.114 289.738 366.362 289.602 371.737C289.5 375.793 288.923 380.813 289.279 380.914C289.636 381.015 291.707 378.024 293.981 372.413C296.256 366.802 294.898 355.732 293.37 348.447C291.843 341.163 287.735 319.023 276.922 308.714C266.109 298.404 255.296 303.711 255.296 303.711C255.296 303.711 244.178 299.672 234.231 308.038C224.284 316.403 219.242 337.58 217.256 347.636C215.27 357.692 214.812 366.312 216.441 371.602C218.071 376.892 219.904 379.917 220.787 379.917C221.669 379.917 221.109 363.726 221.653 364.148C222.196 364.571 221.432 374.086 223.706 380.238C225.981 386.39 225.285 384.531 225.285 384.531C225.285 384.531 224.317 387.573 222.79 389.145C221.262 390.716 217.986 391.883 217.935 392.288C217.884 392.694 221.398 393.353 223.452 392.947C225.506 392.542 226.66 390.564 226.864 390.716C227.067 390.869 227.016 393.86 228.137 395.804C229.257 397.73 232.839 400.08 232.839 400.08L278.178 399.573L278.212 399.589Z" fill="#C4BEB8" stroke="#697065" stroke-width="2.03971" stroke-linecap="round" stroke-linejoin="round"/>
<path d="M300.465 408.817C296.697 407.837 278.585 401.364 278.585 401.364C278.704 400.519 278.348 400.08 277.872 399.708C277.397 399.336 269.385 392.694 269.385 392.694H267.603C267.008 388.688 267.416 378.818 267.416 378.818H242.803C242.803 378.818 243.21 388.705 242.616 392.694H242.26C242.26 392.694 239.306 395.263 236.217 397.426C233.127 399.589 232.058 399.86 232.058 400.739C232.058 400.874 232.245 401.871 232.143 401.415L231.973 401.246C226.897 402.986 210.975 408.462 208.158 409.663C204.814 411.082 197.107 415.747 197.107 428.473C197.107 441.199 196.768 459.436 196.768 459.436H313.96C313.96 459.436 314.215 442.213 314.215 429.707C314.215 417.2 304.234 409.781 300.465 408.8V408.817Z" fill="#FDF7F0"/>
<path d="M229.325 347.061C229.325 347.061 228.561 357.726 232.941 366.785C236.437 374.018 243.448 382.215 255.771 382.215C267.212 382.215 274.342 373.173 277.278 366.43C281.301 357.168 280.537 347.061 280.537 347.061L274.834 345.422L272.322 344.476L267.823 343.31L264.734 340.521L262.222 336.921L260.389 332.882L258.963 328.589L258.47 325.919L257.656 322.488L256.841 320.646L252.886 320.105L251.307 321.017L249.779 322.285L248.625 323.823L247.827 325.851L247.403 328.369L246.911 330.702L246.147 333.372L244.925 336.532L243.702 338.814L242.294 341.18L240.223 343.056L237.965 344.695L235.775 345.118L233.127 345.152L229.325 347.061Z" fill="#FDF7F0"/>
<path d="M262.12 324.195C263.801 330.82 268.706 340.876 273.901 344.543C280.266 349.022 286.292 346.791 286.377 346.521C286.462 346.25 283.491 347.028 278.11 342.329C273.137 337.969 270.353 330.837 270.353 330.837" stroke="#697065" stroke-width="2.03971" stroke-linecap="round" stroke-linejoin="round"/>
<path d="M255.602 319.716C255.602 319.716 257.656 320.308 258.301 324.803C259.675 334.47 265.209 345.253 273.408 344.357" stroke="#697065" stroke-width="2.03971" stroke-linecap="round" stroke-linejoin="round"/>
<path d="M233.144 345.338C233.144 345.338 238.661 346.081 242.65 340.335C247.674 333.135 246.452 328.285 248.659 323.671C250.034 320.798 252.716 320.409 252.716 320.409" stroke="#697065" stroke-width="2.03971" stroke-linecap="round" stroke-linejoin="round"/>
<path d="M227.203 346.994C227.203 346.994 233.67 346.842 238.169 340.47C241.445 335.823 244.721 326.307 244.721 326.307" stroke="#697065" stroke-width="2.03971" stroke-linecap="round" stroke-linejoin="round"/>
<path d="M295.339 377.686C295.339 377.686 297.444 375.827 298.31 371.23C299.668 364.148 291.774 341.062 291.774 341.062" stroke="#697065" stroke-width="2.03971" stroke-linecap="round" stroke-linejoin="round"/>
<path d="M215.915 376.875C215.915 376.875 212.418 373.613 213.08 365.467C213.742 357.32 217.29 347.653 217.29 347.653" stroke="#697065" stroke-width="2.03971" stroke-linecap="round" stroke-linejoin="round"/>
<path d="M255.16 313.344C255.16 313.344 256.858 312.432 258.725 312.466C261.678 312.516 263.393 313.936 263.393 313.936" stroke="#697065" stroke-width="2.03971" stroke-linecap="round" stroke-linejoin="round"/>
<path d="M251.137 313.192C251.137 313.192 249.236 312.499 247.708 312.939L246.164 313.378" stroke="#697065" stroke-width="2.03971" stroke-linecap="round" stroke-linejoin="round"/>
<path d="M280.741 349.461C280.741 349.461 281.267 347.315 284.085 347.484C286.903 347.653 287.123 349.681 287.259 350.205C287.395 350.729 287.055 355.36 285.867 357.506C284.679 359.653 283.898 361.022 282.71 361.208C281.25 361.444 279.383 360.143 279.383 360.143" fill="#FDF7F0"/>
<path d="M280.741 349.461C280.741 349.461 281.267 347.315 284.085 347.484C286.903 347.653 287.123 349.681 287.259 350.205C287.395 350.729 287.055 355.36 285.867 357.506C284.679 359.653 283.898 361.022 282.71 361.208C281.25 361.444 279.383 360.143 279.383 360.143" stroke="#697065" stroke-width="2.03971" stroke-linecap="round" stroke-linejoin="round"/>
<path d="M281.437 364.385C282.655 364.385 283.643 363.401 283.643 362.188C283.643 360.974 282.655 359.991 281.437 359.991C280.218 359.991 279.23 360.974 279.23 362.188C279.23 363.401 280.218 364.385 281.437 364.385Z" fill="#FDF7F0" stroke="#6D8A50" stroke-width="2.03971" stroke-miterlimit="10"/>
<path d="M229.274 349.461C229.274 349.461 228.748 347.315 225.93 347.484C223.112 347.653 222.891 349.681 222.756 350.205C222.62 350.729 222.959 355.36 224.148 357.506C225.336 359.653 226.117 361.022 227.305 361.208C228.765 361.444 230.581 360.278 230.581 360.278" fill="#FDF7F0"/>
<path d="M229.274 349.461C229.274 349.461 228.748 347.315 225.93 347.484C223.112 347.653 222.891 349.681 222.756 350.205C222.62 350.729 222.959 355.36 224.148 357.506C225.336 359.653 226.117 361.022 227.305 361.208C228.765 361.444 230.581 360.278 230.581 360.278" stroke="#697065" stroke-width="2.03971" stroke-linecap="round" stroke-linejoin="round"/>
<path d="M228.34 364.385C229.559 364.385 230.547 363.401 230.547 362.188C230.547 360.974 229.559 359.991 228.34 359.991C227.122 359.991 226.134 360.974 226.134 362.188C226.134 363.401 227.122 364.385 228.34 364.385Z" fill="#FDF7F0" stroke="#6D8A50" stroke-width="2.03971" stroke-miterlimit="10"/>
<path d="M245.722 380.086C239.408 377.179 235.334 371.754 232.941 366.768C228.578 357.726 229.325 347.045 229.325 347.045" stroke="#697065" stroke-width="2.03971" stroke-linecap="round" stroke-linejoin="round"/>
<path d="M280.521 347.062C280.521 347.062 281.285 357.185 277.262 366.43C274.325 373.173 267.196 382.215 255.755 382.215C255.398 382.215 255.059 382.215 254.719 382.199" stroke="#697065" stroke-width="2.03971" stroke-linecap="round" stroke-linejoin="round"/>
<path d="M250.441 368.509C250.441 368.509 252.003 370.064 254.804 370.064C257.605 370.064 259.166 368.509 259.166 368.509" stroke="#697065" stroke-width="2.03971" stroke-linecap="round" stroke-linejoin="round"/>
<path d="M274.512 348.752L280.673 348.397" stroke="#6D8A50" stroke-width="2.03971" stroke-linecap="round" stroke-linejoin="round"/>
<path d="M251.104 348.802C251.104 348.802 252.122 347.095 255.025 347.095C257.927 347.095 258.997 348.819 258.997 348.819" stroke="#6D8A50" stroke-width="2.03971" stroke-linecap="round" stroke-linejoin="round"/>
<path d="M229.206 348.532L235.809 348.87" stroke="#6D8A50" stroke-width="2.03971" stroke-linecap="round" stroke-linejoin="round"/>
<path d="M251.239 350.644C251.239 354.549 247.709 358.098 243.363 358.098C239.018 358.098 235.487 354.549 235.487 350.644C235.487 346.74 238.627 344.357 242.973 344.357C247.318 344.357 251.239 346.74 251.239 350.644Z" stroke="#6D8A50" stroke-width="2.03971" stroke-linecap="round" stroke-linejoin="round"/>
<path d="M259.047 350.644C259.047 354.549 262.578 358.098 266.924 358.098C271.269 358.098 274.8 354.549 274.8 350.644C274.8 346.74 271.66 344.357 267.314 344.357C262.969 344.357 259.047 346.74 259.047 350.644Z" stroke="#6D8A50" stroke-width="2.03971" stroke-linecap="round" stroke-linejoin="round"/>
<path d="M267.568 391.46C267.568 391.46 277.261 399.353 277.753 399.725C278.245 400.096 278.585 400.519 278.466 401.381C278.347 402.243 277.516 407.55 275.92 410.727C274.324 413.905 272.915 417.995 272.542 417.995C272.168 417.995 268.485 414.682 267.11 413.448C265.735 412.214 261.016 408.631 260.609 408.902C260.201 409.172 255.415 424.366 255.415 424.366" stroke="#697065" stroke-width="2.03971" stroke-linecap="round" stroke-linejoin="round"/>
<path d="M231.837 401.262C226.762 403.003 210.84 408.478 208.022 409.679C204.678 411.099 196.971 415.763 196.971 428.489C196.971 441.216 196.632 459.452 196.632 459.452H257.061C257.061 459.452 257.673 431.244 257.554 429.791C257.435 428.338 255.975 425.819 254.413 422.321C252.852 418.823 250.543 409.898 250.119 409.341C249.694 408.784 245.909 410.76 243.329 413.11C240.749 415.459 238.203 418.67 238.203 418.67C238.203 418.67 236.352 414.124 234.876 410.626C233.399 407.127 231.922 401.617 231.922 400.738C231.922 399.859 232.992 399.589 236.081 397.426C239.17 395.262 242.124 392.693 242.124 392.693" stroke="#697065" stroke-width="2.03971" stroke-linecap="round" stroke-linejoin="round"/>
<path d="M260.609 408.902C260.609 408.902 262.086 407.821 263.681 405.995C265.277 404.17 269.164 398.237 269.317 396.226C269.47 394.198 267.925 392.474 267.925 392.474" stroke="#697065" stroke-width="2.03971" stroke-linecap="round" stroke-linejoin="round"/>
<path d="M249.728 409.29C249.728 409.29 248.252 408.209 246.656 406.383C245.06 404.558 241.173 398.626 241.02 396.615C240.868 394.604 242.412 392.863 242.412 392.863" stroke="#697065" stroke-width="2.03971" stroke-linecap="round" stroke-linejoin="round"/>
<path d="M257.062 459.452H313.824C313.824 459.452 314.079 442.23 314.079 429.723C314.079 417.217 304.098 409.797 300.329 408.817C296.561 407.837 278.449 401.364 278.449 401.364" stroke="#697065" stroke-width="2.03971" stroke-linecap="round" stroke-linejoin="round"/>
<path d="M296.867 430.94L295.271 458.81" stroke="#697065" stroke-width="2.03971" stroke-linecap="round" stroke-linejoin="round"/>
<path d="M213.624 430.94L215.406 458.979" stroke="#697065" stroke-width="2.03971" stroke-linecap="round" stroke-linejoin="round"/>
<path d="M243.702 353.078C244.593 353.078 245.315 352.042 245.315 350.763C245.315 349.484 244.593 348.448 243.702 348.448C242.812 348.448 242.09 349.484 242.09 350.763C242.09 352.042 242.812 353.078 243.702 353.078Z" fill="#697065" stroke="#697065" stroke-width="2.03971" stroke-miterlimit="10" stroke-linecap="round"/>
<path d="M266.974 353.078C267.865 353.078 268.587 352.042 268.587 350.763C268.587 349.484 267.865 348.448 266.974 348.448C266.084 348.448 265.362 349.484 265.362 350.763C265.362 352.042 266.084 353.078 266.974 353.078Z" fill="#697065" stroke="#697065" stroke-width="2.03971" stroke-miterlimit="10" stroke-linecap="round"/>
<path d="M242.803 378.818C242.803 378.818 243.363 392.322 242.209 394.147C240.919 396.209 241.53 395.28 241.53 395.28" stroke="#697065" stroke-width="2.03971" stroke-linecap="round" stroke-linejoin="round"/>
<path d="M267.416 378.818C267.416 378.818 266.856 392.322 268.01 394.147C269.3 396.209 268.689 395.28 268.689 395.28" stroke="#697065" stroke-width="2.03971" stroke-linecap="round" stroke-linejoin="round"/>
</g>
<g clip-path="url(#clip2_2212_21448)">
<path d="M167.52 372.592L167.469 371.621C166.078 371.382 164.396 371.058 162.491 370.667C141.239 366.355 140.999 351.205 140.81 353.608C140.638 355.994 140.707 361.703 136.879 367.173C133.823 371.536 128.193 371.689 128.193 371.689L128.553 372.575C128.553 372.575 127.97 380.67 131.3 387.538C132.862 390.759 135.351 394.218 139.007 396.536L138.801 396.689C138.801 396.689 139.231 406.949 138.355 408.329C137.377 409.897 138.51 407.341 138.51 407.341C138.51 407.341 137.342 408.653 137.463 410.187C137.514 410.954 138.544 418.997 148.243 418.997C157.942 418.997 158.937 410.664 158.989 409.897C159.109 408.363 158.989 409.897 157.993 408.329C157.118 406.949 157.547 396.689 157.547 396.689L157.409 396.604C161.152 394.133 163.692 390.384 165.048 387.282C168.104 380.261 167.52 372.575 167.52 372.575V372.592Z" fill="#FDF7F0"/>
<path d="M124.966 380.517C124.056 378.881 123.782 375.37 123.902 374.961C124.022 374.552 124.176 373.035 126.322 372.899C128.468 372.763 128.863 374.399 128.863 374.399L128.554 371.706C128.554 371.706 134.201 371.536 137.24 367.19C141.068 361.72 140.999 356.011 141.171 353.625C141.343 351.205 141.583 366.372 162.852 370.684C168.671 371.86 172.276 372.388 172.344 372.183L173.014 374.978C173.014 374.978 175.984 376.631 174.387 366.9C168.671 331.999 148.638 338.884 148.638 338.884C148.638 338.884 134.699 333.805 125.447 353.829C123.164 358.754 119.816 368.945 120.28 374.382C120.726 379.818 124.966 380.517 124.966 380.517Z" fill="#C4BEB8"/>
<path d="M183.039 419.474C180.172 418.724 166.388 413.816 166.388 413.816C166.474 413.169 166.216 412.845 165.838 412.572C165.478 412.3 159.384 407.238 159.384 407.238H158.028C157.564 404.205 157.891 396.706 157.891 396.706H139.162C139.162 396.706 139.471 404.205 139.025 407.238H138.75C138.75 407.238 136.502 409.198 134.15 410.834C131.798 412.47 130.991 412.692 130.991 413.339C130.991 413.442 131.129 414.208 131.06 413.851L130.923 413.731C127.06 415.061 114.941 419.219 112.795 420.122C110.255 421.196 104.384 424.74 104.384 434.403C104.384 444.066 104.126 457.904 104.126 457.904H193.338C193.338 457.904 193.527 444.832 193.527 435.34C193.527 425.848 185.923 420.207 183.056 419.474H183.039Z" fill="#FDF7F0"/>
<path d="M123.318 372.132C123.318 372.132 128.244 372.013 131.661 367.19C134.167 363.662 136.639 356.437 136.639 356.437" stroke="#697065" stroke-width="2.05972" stroke-linecap="round" stroke-linejoin="round"/>
<path d="M148.449 344.695C148.449 344.695 149.736 343.996 151.161 344.03C153.41 344.081 154.714 345.138 154.714 345.138" stroke="#697065" stroke-width="2.05972" stroke-linecap="round" stroke-linejoin="round"/>
<path d="M145.393 344.473C145.393 344.473 143.951 343.945 142.784 344.269L141.617 344.593" stroke="#697065" stroke-width="2.05972" stroke-linecap="round" stroke-linejoin="round"/>
<path d="M168.018 374.399C168.018 374.399 168.413 372.763 170.559 372.899C172.705 373.035 172.859 374.569 172.979 374.961C173.099 375.353 172.825 378.864 171.915 380.517C171.005 382.153 170.404 383.175 169.512 383.329C168.396 383.516 166.988 382.511 166.988 382.511" fill="#FDF7F0"/>
<path d="M168.018 374.399C168.018 374.399 168.413 372.763 170.559 372.899C172.705 373.035 172.859 374.569 172.979 374.961C173.099 375.353 172.825 378.864 171.915 380.517C171.005 382.153 170.404 383.175 169.512 383.329C168.396 383.516 166.988 382.511 166.988 382.511" stroke="#697065" stroke-width="2.05972" stroke-linecap="round" stroke-linejoin="round"/>
<path d="M128.829 374.399C128.829 374.399 128.434 372.763 126.288 372.899C124.142 373.035 123.988 374.569 123.867 374.961C123.747 375.353 124.022 378.864 124.932 380.517C125.842 382.17 126.442 383.175 127.335 383.329C128.451 383.516 129.824 382.63 129.824 382.63" fill="#FDF7F0"/>
<path d="M128.829 374.399C128.829 374.399 128.434 372.763 126.288 372.899C124.142 373.035 123.988 374.569 123.867 374.961C123.747 375.353 124.022 378.864 124.932 380.517C125.842 382.17 126.442 383.175 127.335 383.329C128.451 383.516 129.824 382.63 129.824 382.63" stroke="#697065" stroke-width="2.05972" stroke-linecap="round" stroke-linejoin="round"/>
<path d="M141.359 397.661C136.553 395.462 133.463 391.338 131.626 387.555C128.296 380.687 128.88 372.592 128.88 372.592" stroke="#697065" stroke-width="2.05972" stroke-linecap="round" stroke-linejoin="round"/>
<path d="M167.847 372.592C167.847 372.592 168.431 380.278 165.375 387.299C163.143 392.412 157.719 399.28 148.999 399.28C148.741 399.28 148.466 399.28 148.209 399.28" stroke="#697065" stroke-width="2.05972" stroke-linecap="round" stroke-linejoin="round"/>
<path d="M144.947 388.867C144.947 388.867 146.149 390.043 148.277 390.043C150.406 390.043 151.608 388.867 151.608 388.867" stroke="#697065" stroke-width="2.05972" stroke-linecap="round" stroke-linejoin="round"/>
<path d="M163.28 373.87L167.967 373.598" stroke="#6D8A50" stroke-width="2.05972" stroke-linecap="round" stroke-linejoin="round"/>
<path d="M145.445 373.904C145.445 373.904 146.235 372.609 148.432 372.609C150.629 372.609 151.453 373.922 151.453 373.922" stroke="#6D8A50" stroke-width="2.05972" stroke-linecap="round" stroke-linejoin="round"/>
<path d="M128.794 373.7L133.824 373.956" stroke="#6D8A50" stroke-width="2.05972" stroke-linecap="round" stroke-linejoin="round"/>
<path d="M145.565 375.302C145.565 378.267 142.887 380.96 139.574 380.96C136.261 380.96 133.583 378.267 133.583 375.302C133.583 372.337 135.969 370.53 139.282 370.53C142.595 370.53 145.565 372.337 145.565 375.302Z" stroke="#6D8A50" stroke-width="2.05972" stroke-linecap="round" stroke-linejoin="round"/>
<path d="M151.504 375.302C151.504 378.267 154.182 380.96 157.495 380.96C160.808 380.96 163.486 378.267 163.486 375.302C163.486 372.337 161.1 370.53 157.787 370.53C154.474 370.53 151.504 372.337 151.504 375.302Z" stroke="#6D8A50" stroke-width="2.05972" stroke-linecap="round" stroke-linejoin="round"/>
<path d="M158.268 407.051C158.268 407.051 159.435 408.363 159.315 409.897C159.264 410.664 158.251 418.997 148.569 418.997C138.887 418.997 137.858 410.971 137.789 410.187C137.669 408.653 138.836 407.341 138.836 407.341L132.725 412.181C131.437 413.203 129.995 413.987 128.433 414.532C123.369 416.271 114.46 419.355 112.641 420.122C110.1 421.196 104.229 424.74 104.229 434.403C104.229 444.066 103.972 457.904 103.972 457.904H193.184C193.184 457.904 193.372 444.833 193.372 435.34C193.372 425.848 185.768 420.207 182.901 419.475C180.807 418.929 172.979 416.202 168.842 414.737C167.126 414.14 165.581 413.169 164.259 411.925L159.349 407.238L158.234 407.051H158.268Z" stroke="#697065" stroke-width="2.05972" stroke-linecap="round" stroke-linejoin="round"/>
<path d="M180.292 436.261L179.073 457.41" stroke="#697065" stroke-width="2.05972" stroke-linecap="round" stroke-linejoin="round"/>
<path d="M116.915 436.261L118.271 457.546" stroke="#697065" stroke-width="2.05972" stroke-linecap="round" stroke-linejoin="round"/>
<path d="M139.128 396.689C139.128 396.689 139.557 406.949 138.681 408.329C137.703 409.897 138.166 409.198 138.166 409.198" stroke="#697065" stroke-width="2.05972" stroke-linecap="round" stroke-linejoin="round"/>
<path d="M157.873 396.689C157.873 396.689 157.444 406.949 158.319 408.329C159.298 409.897 158.834 409.198 158.834 409.198" stroke="#697065" stroke-width="2.05972" stroke-linecap="round" stroke-linejoin="round"/>
<path d="M160.122 360.271C160.122 360.271 162.233 365.691 166.027 368.997C170.112 372.575 172.378 371.979 172.31 372.183C172.241 372.388 168.619 371.86 162.817 370.684C141.565 366.372 141.325 351.222 141.136 353.625C140.947 356.028 141.033 361.72 137.205 367.19C134.15 371.553 128.519 371.706 128.519 371.706" stroke="#697065" stroke-width="2.05972" stroke-linecap="round" stroke-linejoin="round"/>
<path d="M172.979 374.961C172.979 374.961 175.949 376.614 174.352 366.883C168.636 331.982 148.603 338.866 148.603 338.866C148.603 338.866 134.665 333.788 125.412 353.812C123.129 358.737 119.782 368.928 120.245 374.365C120.691 379.801 124.931 380.5 124.931 380.5" stroke="#697065" stroke-width="2.05972" stroke-linecap="round" stroke-linejoin="round"/>
</g>
<g clip-path="url(#clip3_2212_21448)">
<path d="M37.5563 396.166L43.2383 392.504L39.9938 386.066L38.2944 382.983L35.9083 387.752L32.3721 390.682L37.5906 391.107L37.5563 396.166Z" fill="#C4BEB8"/>
<path d="M37.6937 383.494C37.6937 383.494 37.007 386.935 35.3419 388.451C33.6768 389.967 31.4624 391.21 31.4624 391.21C31.4624 391.21 35.6337 391.755 36.8696 390.375C38.1056 388.996 38.1228 394.787 37.5563 396.166C36.9898 397.546 42.4143 393.679 42.5516 392.164" stroke="#697065" stroke-width="2.05914" stroke-linecap="round" stroke-linejoin="round"/>
<path d="M80.231 393.628L75.5104 382.591L73.9826 386.56L71.751 390.273L73.8625 392.095L80.231 393.628Z" fill="#C4BEB8"/>
<path d="M76.1626 383.818C76.1626 383.818 77.8277 391.261 80.231 393.628C81.6043 394.991 72.4033 391.465 72.4033 391.465" stroke="#697065" stroke-width="2.05914" stroke-linecap="round" stroke-linejoin="round"/>
<path d="M30.9987 361.659C32.063 357.826 32.9213 355.578 34.0543 353.109C43.3068 333.079 57.2456 338.171 57.2456 338.171C57.2456 338.171 77.2783 331.29 82.9946 366.172C83.2006 367.399 83.6813 369.579 81.8788 370.345C79.2697 371.452 73.7422 370.788 71.4763 369.953C57.0911 364.69 57.1941 350.503 57.0053 352.904C56.8336 355.289 55.1342 362.459 49.7269 366.854C45.5898 370.209 37.1613 370.975 37.1613 370.975C37.1613 370.975 35.9769 371.878 33.8312 372.014C31.6853 372.151 29.9344 365.491 30.9987 361.642V361.659Z" fill="#C4BEB8"/>
<path d="M91.6463 418.717C88.7796 417.967 74.9953 413.062 74.9953 413.062C75.0811 412.415 74.8236 412.091 74.446 411.819C74.0855 411.546 67.9916 406.488 67.9916 406.488H66.6355C66.1719 403.456 66.4982 395.962 66.4982 395.962C66.4982 395.962 70.206 394.582 73.9997 386.56C74.3259 385.879 75.5275 382.591 75.5275 382.591C75.5275 382.591 80.5571 381.399 80.8832 379.611C81.3639 376.988 82.9089 370.924 76.4716 371.861C75.4417 372.014 68.0774 369.442 64.8846 367.109C59.1682 362.936 56.6105 356.668 56.6105 356.668C56.6105 356.668 54.808 362.749 49.7268 366.854C44.6457 370.958 37.6076 371.265 37.6076 371.265C37.6076 371.265 32.1317 372.014 32.3205 374.859C32.8011 381.944 37.0412 381.995 37.0412 381.995C37.0412 381.995 39.9251 386.151 40.7662 387.888C43.6329 393.799 47.7356 395.962 47.7356 395.962C47.7356 395.962 48.0446 403.456 47.5983 406.488H47.3236C47.3236 406.488 45.0748 408.446 42.7232 410.081C40.3714 411.716 39.5646 411.938 39.5646 412.585C39.5646 412.687 39.7019 413.454 39.6333 413.096L39.4959 412.977C35.6335 414.305 23.5143 418.461 21.3686 419.364C18.828 420.437 12.9572 423.98 12.9572 433.637C12.9572 443.295 12.6997 457.125 12.6997 457.125H101.912C101.912 457.125 102.1 444.06 102.1 434.574C102.1 425.087 94.4959 419.449 91.6292 418.717H91.6463Z" fill="#FDF7F0"/>
<path d="M32.9727 371.52C33.7623 370.856 37.7105 367.995 38.5688 366.785C41.0751 363.26 42.3453 359.513 42.3453 359.513" stroke="#697065" stroke-width="2.05914" stroke-linecap="round" stroke-linejoin="round"/>
<path d="M76.6262 373.684C76.6262 373.684 77.021 372.048 79.1667 372.185C81.3125 372.321 81.467 373.854 81.5871 374.246C81.7073 374.637 81.4327 378.146 80.5228 379.798C79.6131 381.45 79.0122 382.455 78.1196 382.608C77.0038 382.796 75.5962 381.791 75.5962 381.791" fill="#FDF7F0"/>
<path d="M76.6262 373.684C76.6262 373.684 77.021 372.048 79.1667 372.185C81.3125 372.321 81.467 373.854 81.5871 374.246C81.7073 374.637 81.4327 378.146 80.5228 379.798C79.6131 381.45 79.0122 382.455 78.1196 382.608C77.0038 382.796 75.5962 381.791 75.5962 381.791" stroke="#697065" stroke-width="2.05914" stroke-linecap="round" stroke-linejoin="round"/>
<path d="M37.4535 373.684C37.4535 373.684 37.0586 372.048 34.9129 372.185C32.7672 372.321 32.6126 373.854 32.4925 374.246C32.3723 374.637 32.6469 378.146 33.5568 379.798C34.4666 381.45 35.0674 382.455 35.9601 382.608C37.0758 382.796 38.4491 381.91 38.4491 381.91" fill="#FDF7F0"/>
<path d="M37.4535 373.684C37.4535 373.684 37.0586 372.048 34.9129 372.185C32.7672 372.321 32.6126 373.854 32.4925 374.246C32.3723 374.637 32.6469 378.146 33.5568 379.798C34.4666 381.45 35.0674 382.455 35.9601 382.608C37.0758 382.796 38.4491 381.91 38.4491 381.91" stroke="#697065" stroke-width="2.05914" stroke-linecap="round" stroke-linejoin="round"/>
<path d="M49.9673 396.916C45.1608 394.718 42.0709 390.596 40.2342 386.815C36.9039 379.951 37.4876 371.861 37.4876 371.861" stroke="#697065" stroke-width="2.05914" stroke-linecap="round" stroke-linejoin="round"/>
<path d="M76.4719 371.861C76.4719 371.861 77.0557 379.543 74 386.56C71.7685 391.67 66.3439 398.534 57.6237 398.534C57.3661 398.534 57.0915 398.534 56.834 398.534" stroke="#697065" stroke-width="2.05914" stroke-linecap="round" stroke-linejoin="round"/>
<path d="M53.5552 388.144C53.5552 388.144 54.7568 389.319 56.8854 389.319C59.014 389.319 60.2156 388.144 60.2156 388.144" stroke="#697065" stroke-width="2.05914" stroke-linecap="round" stroke-linejoin="round"/>
<path d="M66.3951 401.105C66.3951 401.105 67.2019 405.602 57.5031 405.602C47.8042 405.602 47.9931 401.957 47.9416 401.191C47.8214 399.658 47.2721 408.276 47.2721 408.276C47.2721 408.276 38.6204 413.232 37.0583 413.76C31.9943 415.498 23.0851 418.581 21.2655 419.347C18.725 420.42 12.8542 423.963 12.8542 433.62C12.8542 443.277 12.5967 457.107 12.5967 457.107H101.809C101.809 457.107 101.997 444.044 101.997 434.557C101.997 425.07 94.3929 419.432 91.5261 418.7C89.4319 418.155 81.6042 415.43 77.4672 413.965C75.7506 413.369 67.425 408.429 67.425 408.429L66.3608 401.088L66.3951 401.105Z" stroke="#697065" stroke-width="2.05914" stroke-linecap="round" stroke-linejoin="round"/>
<path d="M88.9171 435.494L87.6982 456.647" stroke="#697065" stroke-width="2.05914" stroke-linecap="round" stroke-linejoin="round"/>
<path d="M25.54 435.494L26.8961 456.767" stroke="#697065" stroke-width="2.05914" stroke-linecap="round" stroke-linejoin="round"/>
<path d="M47.7526 395.962C47.7526 395.962 48.1818 406.215 47.3063 407.595C46.3279 409.162 46.7913 408.463 46.7913 408.463" stroke="#697065" stroke-width="2.05914" stroke-linecap="round" stroke-linejoin="round"/>
<path d="M66.4807 395.962C66.4807 395.962 66.0515 406.215 66.9269 407.595C67.9054 409.162 67.442 408.463 67.442 408.463" stroke="#697065" stroke-width="2.05914" stroke-linecap="round" stroke-linejoin="round"/>
<path d="M71.6306 357.775C71.6306 357.775 74.0853 364.622 77.8791 367.927C81.9646 371.503 81.0033 371.248 80.9346 371.435C80.866 371.623 80.5398 371.929 74.7205 370.754C53.469 366.445 57.1768 350.486 57.0051 352.887C56.8335 355.272 55.1856 363.107 50.3963 366.768C46.1562 370.005 37.144 370.958 37.144 370.958" stroke="#697065" stroke-width="2.05914" stroke-linecap="round" stroke-linejoin="round"/>
<path d="M81.6043 374.246C81.6043 374.246 87.0115 367.024 80.2138 352.036C71.2188 332.193 57.2284 338.188 57.2284 338.188C57.2284 338.188 41.573 332.414 34.0371 353.126C29.6255 365.27 32.5437 372.611 32.5437 372.611" stroke="#697065" stroke-width="2.05914" stroke-linecap="round" stroke-linejoin="round"/>
<path d="M77.0722 415.31L56.8163 439.871L35.9424 414.97" stroke="#697065" stroke-width="2.05914" stroke-linecap="round" stroke-linejoin="round"/>
<path d="M56.8164 439.871L57.0052 456.477" stroke="#697065" stroke-width="2.05914" stroke-linecap="round" stroke-linejoin="round"/>
</g>
<g clip-path="url(#clip4_2212_21448)">
<path d="M251.482 65.4266H56.2837C54.522 65.4266 53.0938 66.8626 53.0938 68.6341V96.8351C53.0938 98.6066 54.522 100.043 56.2837 100.043H251.482C253.244 100.043 254.672 98.6066 254.672 96.8351V68.6341C254.672 66.8626 253.244 65.4266 251.482 65.4266Z" fill="#C3D8AE"/>
<path d="M181.947 117.288H140.101C139.023 117.288 138.148 118.167 138.148 119.252V172.861C138.148 173.945 139.023 174.825 140.101 174.825H181.947C183.027 174.825 183.901 173.945 183.901 172.861V119.252C183.901 118.167 183.027 117.288 181.947 117.288Z" fill="#C3D8AE"/>
<path d="M104.689 117.288H71.5704C70.8182 117.288 70.2085 117.901 70.2085 118.657V151.958C70.2085 152.714 70.8182 153.327 71.5704 153.327H104.689C105.441 153.327 106.051 152.714 106.051 151.958V118.657C106.051 117.901 105.441 117.288 104.689 117.288Z" fill="#94B177"/>
<path d="M234.923 117.288H193.077C191.998 117.288 191.123 118.167 191.123 119.252V172.861C191.123 173.945 191.998 174.825 193.077 174.825H234.923C236.001 174.825 236.876 173.945 236.876 172.861V119.252C236.876 118.167 236.001 117.288 234.923 117.288Z" fill="#C3D8AE"/>
<path d="M247.199 65.4266H60.5669C56.4396 65.4266 53.0938 68.7908 53.0938 72.9408V248.598C53.0938 252.748 56.4396 256.113 60.5669 256.113H247.199C251.326 256.113 254.672 252.748 254.672 248.598V72.9408C254.672 68.7908 251.326 65.4266 247.199 65.4266Z" stroke="#697065" stroke-width="2.02031" stroke-linecap="round" stroke-linejoin="round"/>
<path d="M251.5 100.043H56.3018" stroke="#697065" stroke-width="2.02031" stroke-linecap="round" stroke-linejoin="round"/>
<path d="M108.919 166.896H72.5923" stroke="#697065" stroke-width="2.02031" stroke-linecap="round" stroke-linejoin="round"/>
<path d="M93.9007 177.888H72.5923" stroke="#697065" stroke-width="2.02031" stroke-linecap="round" stroke-linejoin="round"/>
<path d="M93.9007 226.866H72.5923" stroke="#697065" stroke-width="2.02031" stroke-linecap="round" stroke-linejoin="round"/>
<path d="M108.919 191.62H72.5923" stroke="#697065" stroke-width="2.02031" stroke-linecap="round" stroke-linejoin="round"/>
<path d="M108.919 201.711H72.5923" stroke="#697065" stroke-width="2.02031" stroke-linecap="round" stroke-linejoin="round"/>
<path d="M108.919 214.054H72.5923" stroke="#697065" stroke-width="2.02031" stroke-linecap="round" stroke-linejoin="round"/>
</g>
<g clip-path="url(#clip5_2212_21448)">
<g clip-path="url(#clip6_2212_21448)">
<path d="M205.071 261.678C204.808 262.275 204.729 262.937 204.845 263.579C204.962 264.22 205.268 264.813 205.724 265.279L205.843 265.398C206.211 265.765 206.503 266.202 206.702 266.682C206.901 267.162 207.003 267.677 207.003 268.197C207.003 268.717 206.901 269.232 206.702 269.713C206.503 270.193 206.211 270.63 205.843 270.997C205.475 271.365 205.039 271.657 204.558 271.856C204.078 272.055 203.563 272.158 203.043 272.158C202.523 272.158 202.008 272.055 201.528 271.856C201.047 271.657 200.611 271.365 200.243 270.997L200.125 270.878C199.658 270.422 199.066 270.116 198.424 270C197.782 269.883 197.12 269.962 196.524 270.225C195.938 270.476 195.439 270.893 195.088 271.424C194.736 271.954 194.548 272.576 194.545 273.213V273.549C194.545 274.599 194.128 275.606 193.386 276.348C192.644 277.09 191.637 277.507 190.588 277.507C189.538 277.507 188.532 277.09 187.79 276.348C187.048 275.606 186.631 274.599 186.631 273.549V273.371C186.615 272.717 186.403 272.081 186.022 271.548C185.641 271.016 185.109 270.61 184.494 270.384C183.897 270.12 183.235 270.042 182.593 270.158C181.951 270.275 181.359 270.581 180.893 271.037L180.774 271.155C180.407 271.523 179.97 271.815 179.49 272.014C179.009 272.214 178.494 272.316 177.974 272.316C177.454 272.316 176.939 272.214 176.459 272.014C175.979 271.815 175.542 271.523 175.175 271.155C174.807 270.788 174.515 270.351 174.316 269.871C174.117 269.391 174.014 268.876 174.014 268.356C174.014 267.836 174.117 267.321 174.316 266.84C174.515 266.36 174.807 265.923 175.175 265.556L175.293 265.437C175.749 264.971 176.055 264.379 176.172 263.737C176.288 263.095 176.21 262.433 175.946 261.836C175.695 261.251 175.279 260.752 174.748 260.4C174.217 260.049 173.595 259.86 172.959 259.858H172.622C171.573 259.858 170.566 259.441 169.824 258.699C169.082 257.956 168.665 256.95 168.665 255.9C168.665 254.851 169.082 253.844 169.824 253.102C170.566 252.36 171.573 251.943 172.622 251.943H172.8C173.455 251.928 174.09 251.716 174.623 251.335C175.156 250.954 175.562 250.421 175.788 249.806C176.051 249.21 176.13 248.548 176.014 247.906C175.897 247.264 175.591 246.672 175.135 246.205L175.016 246.087C174.648 245.719 174.357 245.283 174.157 244.802C173.958 244.322 173.856 243.807 173.856 243.287C173.856 242.767 173.958 242.252 174.157 241.772C174.357 241.291 174.648 240.855 175.016 240.487C175.384 240.119 175.82 239.827 176.301 239.628C176.781 239.429 177.296 239.327 177.816 239.327C178.336 239.327 178.851 239.429 179.331 239.628C179.812 239.827 180.248 240.119 180.616 240.487L180.734 240.606C181.201 241.062 181.793 241.368 182.435 241.484C183.077 241.601 183.739 241.522 184.335 241.259H184.494C185.079 241.008 185.578 240.592 185.93 240.061C186.281 239.53 186.47 238.908 186.472 238.271V237.935C186.472 236.885 186.889 235.879 187.631 235.137C188.374 234.395 189.38 233.978 190.43 233.978C191.479 233.978 192.486 234.395 193.228 235.137C193.97 235.879 194.387 236.885 194.387 237.935V238.113C194.389 238.75 194.578 239.372 194.929 239.902C195.281 240.433 195.78 240.85 196.365 241.101C196.962 241.364 197.624 241.443 198.266 241.326C198.908 241.21 199.5 240.904 199.966 240.448L200.085 240.329C200.453 239.961 200.889 239.669 201.369 239.47C201.85 239.271 202.365 239.168 202.885 239.168C203.405 239.168 203.92 239.271 204.4 239.47C204.881 239.669 205.317 239.961 205.684 240.329C206.052 240.696 206.344 241.133 206.543 241.613C206.743 242.094 206.845 242.609 206.845 243.129C206.845 243.649 206.743 244.164 206.543 244.644C206.344 245.124 206.052 245.561 205.684 245.928L205.566 246.047C205.11 246.513 204.804 247.106 204.687 247.747C204.571 248.389 204.649 249.051 204.913 249.648V249.806C205.164 250.392 205.58 250.891 206.111 251.242C206.642 251.594 207.264 251.782 207.9 251.785H208.237C209.286 251.785 210.293 252.202 211.035 252.944C211.777 253.686 212.194 254.693 212.194 255.742C212.194 256.792 211.777 257.798 211.035 258.54C210.293 259.282 209.286 259.699 208.237 259.699H208.059C207.422 259.702 206.8 259.891 206.269 260.242C205.738 260.594 205.322 261.093 205.071 261.678Z" fill="#F7F7F0" stroke="#697065" stroke-width="2.15846" stroke-linecap="round" stroke-linejoin="round"/>
</g>
<g clip-path="url(#clip7_2212_21448)">
<path d="M190.429 261.678C193.708 261.678 196.366 259.021 196.366 255.742C196.366 252.464 193.708 249.806 190.429 249.806C187.151 249.806 184.493 252.464 184.493 255.742C184.493 259.021 187.151 261.678 190.429 261.678Z" stroke="#697065" stroke-width="2.15865" stroke-linecap="round" stroke-linejoin="round"/>
</g>
</g>
<g clip-path="url(#clip8_2212_21448)">
<g clip-path="url(#clip9_2212_21448)">
<path d="M204.685 298.661C203.345 299.18 202.191 300.089 201.372 301.271C200.553 302.452 200.107 303.852 200.091 305.289L200.091 305.659C200.092 306.805 199.866 307.94 199.428 308.999C198.99 310.058 198.347 311.02 197.537 311.83C196.727 312.641 195.764 313.283 194.706 313.722C193.647 314.16 192.512 314.385 191.366 314.384C190.22 314.385 189.085 314.16 188.026 313.722C186.967 313.283 186.005 312.641 185.195 311.83C184.384 311.02 183.742 310.058 183.303 308.999C182.865 307.94 182.64 306.805 182.641 305.659L182.641 305.289C182.625 303.852 182.179 302.452 181.36 301.271C180.541 300.089 179.387 299.18 178.047 298.661C176.744 298.14 175.317 298.011 173.942 298.29C172.567 298.57 171.304 299.245 170.308 300.233L169.784 300.757C168.149 302.392 165.931 303.311 163.618 303.311C161.305 303.311 159.087 302.393 157.452 300.757C155.816 299.122 154.897 296.904 154.897 294.591C154.897 292.278 155.816 290.06 157.452 288.425L157.729 288.147C158.726 287.103 159.385 285.783 159.622 284.359C159.858 282.935 159.66 281.472 159.055 280.162C158.535 278.822 157.626 277.668 156.445 276.849C155.263 276.03 153.863 275.584 152.426 275.568L152.056 275.568C150.91 275.569 149.775 275.343 148.716 274.905C147.658 274.467 146.695 273.824 145.885 273.014C145.075 272.204 144.432 271.241 143.994 270.183C143.556 269.124 143.33 267.989 143.331 266.843C143.33 265.697 143.556 264.562 143.994 263.503C144.432 262.444 145.075 261.482 145.885 260.672C146.695 259.862 147.658 259.219 148.716 258.781C149.775 258.342 150.91 258.117 152.056 258.118L152.426 258.118C153.864 258.102 155.263 257.656 156.445 256.837C157.626 256.018 158.535 254.864 159.055 253.524C159.576 252.221 159.705 250.795 159.425 249.42C159.146 248.045 158.471 246.781 157.482 245.785L156.958 245.261C155.323 243.626 154.404 241.408 154.404 239.095C154.404 236.782 155.323 234.564 156.958 232.929C158.594 231.293 160.812 230.375 163.125 230.375C165.437 230.375 167.655 231.293 169.291 232.929L169.568 233.206C170.613 234.203 171.933 234.862 173.357 235.099C174.781 235.335 176.243 235.138 177.553 234.532C178.894 234.012 180.048 233.103 180.867 231.922C181.685 230.74 182.131 229.341 182.147 227.903V227.533C182.147 226.387 182.372 225.252 182.81 224.193C183.248 223.135 183.891 222.172 184.701 221.362C185.512 220.552 186.474 219.909 187.533 219.471C188.592 219.033 189.726 218.807 190.872 218.808C192.018 218.807 193.153 219.033 194.212 219.471C195.271 219.909 196.233 220.552 197.044 221.362C197.854 222.172 198.497 223.135 198.935 224.193C199.373 225.252 199.598 226.387 199.598 227.533V227.903C199.614 229.341 200.06 230.74 200.878 231.922C201.697 233.103 202.851 234.012 204.191 234.532L204.438 234.779C205.741 235.3 207.167 235.428 208.543 235.149C209.917 234.87 211.181 234.194 212.177 233.206L212.701 232.682C214.336 231.047 216.554 230.128 218.867 230.128C221.18 230.128 223.398 231.047 225.033 232.682C226.669 234.317 227.587 236.535 227.588 238.848C227.588 241.161 226.669 243.379 225.033 245.014L224.756 245.292C223.768 246.288 223.092 247.551 222.813 248.926C222.534 250.301 222.662 251.728 223.184 253.031C223.703 254.371 224.612 255.525 225.794 256.344C226.975 257.162 228.375 257.608 229.812 257.624L230.182 257.624C231.328 257.624 232.463 257.849 233.522 258.287C234.581 258.726 235.543 259.368 236.353 260.179C237.164 260.989 237.806 261.951 238.245 263.01C238.683 264.069 238.908 265.204 238.907 266.35C238.908 267.496 238.683 268.63 238.245 269.689C237.806 270.748 237.164 271.71 236.353 272.521C235.543 273.331 234.581 273.974 233.522 274.412C232.463 274.85 231.328 275.075 230.182 275.075L229.812 275.075C228.375 275.091 226.975 275.537 225.794 276.355C224.612 277.174 223.703 278.328 223.184 279.669L222.937 279.915C222.416 281.218 222.287 282.645 222.566 284.02C222.846 285.395 223.521 286.658 224.509 287.654L225.033 288.178C226.669 289.813 227.587 292.031 227.587 294.344C227.587 296.657 226.669 298.875 225.033 300.51C223.398 302.146 221.18 303.065 218.867 303.065C216.554 303.065 214.336 302.146 212.701 300.51L212.423 300.233C211.427 299.245 210.164 298.569 208.789 298.29C207.414 298.011 205.988 298.14 204.685 298.661Z" fill="#F7F7F0" stroke="#697065" stroke-width="2.82794" stroke-linecap="round" stroke-linejoin="round"/>
</g>
<g clip-path="url(#clip10_2212_21448)">
<path d="M181.876 275.839C186.981 280.944 195.257 280.944 200.362 275.839C205.467 270.734 205.467 262.458 200.362 257.353C195.257 252.248 186.981 252.248 181.876 257.353C176.771 262.458 176.771 270.734 181.876 275.839Z" stroke="#697065" stroke-width="2.82602" stroke-linecap="round" stroke-linejoin="round"/>
</g>
</g>
<g clip-path="url(#clip11_2212_21448)">
<path d="M278.243 86.5085C279.163 85.5894 280.254 84.8603 281.455 84.3628C282.656 83.8654 283.943 83.6094 285.243 83.6094C286.542 83.6094 287.83 83.8654 289.03 84.3628C290.231 84.8603 291.323 85.5894 292.242 86.5085C293.161 87.4276 293.89 88.5188 294.387 89.7197C294.885 90.9206 295.141 92.2078 295.141 93.5076C295.141 94.8075 294.885 96.0946 294.387 97.2956C293.89 98.4964 293.161 99.5876 292.242 100.507L244.998 147.751L225.75 153L230.999 133.753L278.243 86.5085Z" fill="#F7F7F0" stroke="#697065" stroke-width="1.99975" stroke-linecap="round" stroke-linejoin="round"/>
</g>
</g>
<path d="M8.25 0V2H320.25V0V-2H8.25V0ZM328.25 8H326.25V451H328.25H330.25V8H328.25ZM320.25 459V457H8.24999V459V461H320.25V459ZM0.25 451H2.25V7.99999H0.25H-1.75V451H0.25ZM8.24999 459V457C4.93629 457 2.25 454.314 2.25 451H0.25H-1.75C-1.75 456.523 2.72714 461 8.24999 461V459ZM328.25 451H326.25C326.25 454.314 323.564 457 320.25 457V459V461C325.773 461 330.25 456.523 330.25 451H328.25ZM320.25 0V2C323.564 2 326.25 4.68629 326.25 8H328.25H330.25C330.25 2.47715 325.773 -2 320.25 -2V0ZM8.25 0V-2C2.72716 -2 -1.75 2.47714 -1.75 7.99999H0.25H2.25C2.25 4.68629 4.93629 2 8.25 2V0Z" fill="#697065" mask="url(#path-2-inside-1_2212_21448)"/>
<defs>
<clipPath id="clip0_2212_21448">
<path d="M0.25 7.99999C0.25 3.58171 3.83172 0 8.25 0H320.25C324.668 0 328.25 3.58172 328.25 8V451C328.25 455.418 324.668 459 320.25 459H8.24999C3.83171 459 0.25 455.418 0.25 451V7.99999Z" fill="white"/>
</clipPath>
<clipPath id="clip1_2212_21448">
<rect width="119.492" height="159.141" fill="white" transform="translate(195.609 301.328)"/>
</clipPath>
<clipPath id="clip2_2212_21448">
<rect width="91.4688" height="121.664" fill="white" transform="translate(102.938 337.266)"/>
</clipPath>
<clipPath id="clip3_2212_21448">
<rect width="91.4688" height="121.82" fill="white" transform="translate(11.5625 336.312)"/>
</clipPath>
<clipPath id="clip4_2212_21448">
<rect width="203.594" height="192.711" fill="white" transform="translate(52.0859 64.4141)"/>
</clipPath>
<clipPath id="clip5_2212_21448">
<rect width="47.4844" height="47.4844" fill="white" transform="translate(166.688 232)"/>
</clipPath>
<clipPath id="clip6_2212_21448">
<rect width="45.6875" height="45.6875" fill="white" transform="translate(167.586 232.898)"/>
</clipPath>
<clipPath id="clip7_2212_21448">
<rect width="14.0312" height="14.0312" fill="white" transform="translate(183.414 248.727)"/>
</clipPath>
<clipPath id="clip8_2212_21448">
<rect width="104.652" height="104.652" fill="white" transform="translate(191.119 192.596) rotate(45)"/>
</clipPath>
<clipPath id="clip9_2212_21448">
<rect width="98.7518" height="98.7518" fill="white" transform="translate(191.119 196.768) rotate(45)"/>
</clipPath>
<clipPath id="clip10_2212_21448">
<rect width="28.9692" height="28.9692" fill="white" transform="translate(191.119 246.112) rotate(45)"/>
</clipPath>
<clipPath id="clip11_2212_21448">
<rect width="71.3906" height="71.3906" fill="white" transform="translate(224.75 82.6094)"/>
</clipPath>
</defs>
</svg>
