<svg width="305" height="64" viewBox="0 0 305 64" fill="none" xmlns="http://www.w3.org/2000/svg">
<mask id="path-1-inside-1_2061_2034" fill="white">
<path d="M0 8C0 3.58172 3.58172 0 8 0H296.438C300.856 0 304.438 3.58172 304.438 8V56C304.438 60.4183 300.856 64 296.437 64H8C3.58172 64 0 60.4183 0 56V8Z"/>
</mask>
<path d="M0 8C0 3.58172 3.58172 0 8 0H296.438C300.856 0 304.438 3.58172 304.438 8V56C304.438 60.4183 300.856 64 296.437 64H8C3.58172 64 0 60.4183 0 56V8Z" fill="white"/>
<path d="M8 0V1H296.438V0V-1H8V0ZM304.438 8H303.438V56H304.438H305.438V8H304.438ZM296.438 64V63H8V64V65H296.438V64ZM0 56H1V8H0H-1V56H0ZM8 64V63C4.134 63 1 59.866 1 56H0H-1C-1 60.9706 3.02943 65 8 65V64ZM304.438 56H303.438C303.438 59.866 300.303 63 296.438 63V64V65C301.408 65 305.438 60.9706 305.438 56H304.438ZM296.438 0V1C300.303 1 303.438 4.13401 303.438 8H304.438H305.438C305.438 3.02944 301.408 -1 296.438 -1V0ZM8 0V-1C3.02944 -1 -1 3.02944 -1 8H0H1C1 4.13401 4.13401 1 8 1V0Z" fill="#F7F7F0" mask="url(#path-1-inside-1_2061_2034)"/>
<mask id="path-3-inside-2_2061_2034" fill="white">
<path d="M17 21C17 18.7909 18.7909 17 21 17H82.7031C84.9123 17 86.7031 18.7909 86.7031 21V43C86.7031 45.2091 84.9123 47 82.7031 47H21C18.7909 47 17 45.2091 17 43V21Z"/>
</mask>
<path d="M17 21C17 18.7909 18.7909 17 21 17H82.7031C84.9123 17 86.7031 18.7909 86.7031 21V43C86.7031 45.2091 84.9123 47 82.7031 47H21C18.7909 47 17 45.2091 17 43V21Z" fill="#F7F7F0"/>
<path d="M21 17V18H82.7031V17V16H21V17ZM86.7031 21H85.7031V43H86.7031H87.7031V21H86.7031ZM82.7031 47V46H21V47V48H82.7031V47ZM17 43H18V21H17H16V43H17ZM21 47V46C19.3431 46 18 44.6569 18 43H17H16C16 45.7614 18.2386 48 21 48V47ZM86.7031 43H85.7031C85.7031 44.6569 84.36 46 82.7031 46V47V48C85.4645 48 87.7031 45.7614 87.7031 43H86.7031ZM82.7031 17V18C84.36 18 85.7031 19.3431 85.7031 21H86.7031H87.7031C87.7031 18.2386 85.4646 16 82.7031 16V17ZM21 17V16C18.2386 16 16 18.2386 16 21H17H18C18 19.3431 19.3431 18 21 18V17Z" fill="#BEC6B9" mask="url(#path-3-inside-2_2061_2034)"/>
<path d="M31.233 37V26.8182H32.4659V35.9062H37.1989V37H31.233ZM42.0002 37.1591C41.2644 37.1591 40.6297 36.9967 40.0961 36.6719C39.5658 36.3438 39.1564 35.8864 38.8681 35.2997C38.583 34.7098 38.4405 34.0237 38.4405 33.2415C38.4405 32.4593 38.583 31.7699 38.8681 31.1733C39.1564 30.5734 39.5575 30.1061 40.0712 29.7713C40.5882 29.4332 41.1915 29.2642 41.8809 29.2642C42.2786 29.2642 42.6713 29.3305 43.0591 29.4631C43.4469 29.5956 43.7999 29.8111 44.1181 30.1094C44.4363 30.4044 44.6898 30.7955 44.8787 31.2827C45.0676 31.7699 45.1621 32.3698 45.1621 33.0824V33.5795H39.2757V32.5653H43.9689C43.9689 32.1345 43.8828 31.75 43.7104 31.4119C43.5414 31.0739 43.2994 30.8071 42.9846 30.6115C42.673 30.416 42.3051 30.3182 41.8809 30.3182C41.4135 30.3182 41.0092 30.4342 40.6678 30.6662C40.3297 30.8949 40.0695 31.1932 39.8873 31.5611C39.705 31.929 39.6138 32.3234 39.6138 32.7443V33.4205C39.6138 33.9972 39.7132 34.486 39.9121 34.8871C40.1143 35.2848 40.3944 35.5881 40.7523 35.7969C41.1103 36.0024 41.5262 36.1051 42.0002 36.1051C42.3084 36.1051 42.5868 36.062 42.8354 35.9759C43.0873 35.8864 43.3044 35.7538 43.4867 35.5781C43.669 35.3991 43.8098 35.1771 43.9093 34.9119L45.0428 35.2301C44.9235 35.6146 44.723 35.9527 44.4412 36.2443C44.1595 36.5327 43.8115 36.758 43.3972 36.9205C42.9829 37.0795 42.5172 37.1591 42.0002 37.1591ZM52.8084 29.3636L49.9846 37H48.7914L45.9675 29.3636H47.2402L49.3482 35.4489H49.4277L51.5357 29.3636H52.8084ZM57.1349 37.1591C56.3991 37.1591 55.7644 36.9967 55.2308 36.6719C54.7005 36.3438 54.2912 35.8864 54.0028 35.2997C53.7178 34.7098 53.5753 34.0237 53.5753 33.2415C53.5753 32.4593 53.7178 31.7699 54.0028 31.1733C54.2912 30.5734 54.6922 30.1061 55.206 29.7713C55.723 29.4332 56.3262 29.2642 57.0156 29.2642C57.4134 29.2642 57.8061 29.3305 58.1939 29.4631C58.5817 29.5956 58.9347 29.8111 59.2528 30.1094C59.571 30.4044 59.8246 30.7955 60.0135 31.2827C60.2024 31.7699 60.2969 32.3698 60.2969 33.0824V33.5795H54.4105V32.5653H59.1037C59.1037 32.1345 59.0175 31.75 58.8452 31.4119C58.6761 31.0739 58.4342 30.8071 58.1193 30.6115C57.8078 30.416 57.4399 30.3182 57.0156 30.3182C56.5483 30.3182 56.1439 30.4342 55.8026 30.6662C55.4645 30.8949 55.2043 31.1932 55.022 31.5611C54.8397 31.929 54.7486 32.3234 54.7486 32.7443V33.4205C54.7486 33.9972 54.848 34.486 55.0469 34.8871C55.2491 35.2848 55.5291 35.5881 55.8871 35.7969C56.245 36.0024 56.661 36.1051 57.1349 36.1051C57.4432 36.1051 57.7216 36.062 57.9702 35.9759C58.2221 35.8864 58.4392 35.7538 58.6214 35.5781C58.8037 35.3991 58.9446 35.1771 59.044 34.9119L60.1776 35.2301C60.0582 35.6146 59.8577 35.9527 59.576 36.2443C59.2943 36.5327 58.9463 36.758 58.532 36.9205C58.1177 37.0795 57.652 37.1591 57.1349 37.1591ZM63.1046 26.8182V37H61.9313V26.8182H63.1046ZM72.4499 26.8182V37H71.217V28.1108H71.1573L68.6715 29.7614V28.5085L71.217 26.8182H72.4499Z" fill="#0E1829"/>
<path d="M102.23 37L101.464 36.2443L104.616 33.0923H96.4531V31.9986H104.616L101.464 28.8565L102.23 28.0909L106.685 32.5455L102.23 37Z" fill="#858D80"/>
<mask id="path-7-inside-3_2061_2034" fill="white">
<path d="M115.234 21C115.234 18.7909 117.025 17 119.234 17H182.906C185.115 17 186.906 18.7909 186.906 21V43C186.906 45.2091 185.115 47 182.906 47H119.234C117.025 47 115.234 45.2091 115.234 43V21Z"/>
</mask>
<path d="M115.234 21C115.234 18.7909 117.025 17 119.234 17H182.906C185.115 17 186.906 18.7909 186.906 21V43C186.906 45.2091 185.115 47 182.906 47H119.234C117.025 47 115.234 45.2091 115.234 43V21Z" fill="#C3D8AE"/>
<path d="M119.234 17V18H182.906V17V16H119.234V17ZM186.906 21H185.906V43H186.906H187.906V21H186.906ZM182.906 47V46H119.234V47V48H182.906V47ZM115.234 43H116.234V21H115.234H114.234V43H115.234ZM119.234 47V46C117.578 46 116.234 44.6569 116.234 43H115.234H114.234C114.234 45.7614 116.473 48 119.234 48V47ZM186.906 43H185.906C185.906 44.6569 184.563 46 182.906 46V47V48C185.668 48 187.906 45.7614 187.906 43H186.906ZM182.906 17V18C184.563 18 185.906 19.3431 185.906 21H186.906H187.906C187.906 18.2386 185.668 16 182.906 16V17ZM119.234 17V16C116.473 16 114.234 18.2386 114.234 21H115.234H116.234C116.234 19.3431 117.578 18 119.234 18V17Z" fill="#A1AA9C" mask="url(#path-7-inside-3_2061_2034)"/>
<path d="M129.467 37V26.8182H130.7V35.9062H135.433V37H129.467ZM140.235 37.1591C139.499 37.1591 138.864 36.9967 138.33 36.6719C137.8 36.3438 137.391 35.8864 137.102 35.2997C136.817 34.7098 136.675 34.0237 136.675 33.2415C136.675 32.4593 136.817 31.7699 137.102 31.1733C137.391 30.5734 137.792 30.1061 138.306 29.7713C138.823 29.4332 139.426 29.2642 140.115 29.2642C140.513 29.2642 140.906 29.3305 141.294 29.4631C141.681 29.5956 142.034 29.8111 142.352 30.1094C142.671 30.4044 142.924 30.7955 143.113 31.2827C143.302 31.7699 143.396 32.3698 143.396 33.0824V33.5795H137.51V32.5653H142.203C142.203 32.1345 142.117 31.75 141.945 31.4119C141.776 31.0739 141.534 30.8071 141.219 30.6115C140.907 30.416 140.539 30.3182 140.115 30.3182C139.648 30.3182 139.244 30.4342 138.902 30.6662C138.564 30.8949 138.304 31.1932 138.122 31.5611C137.939 31.929 137.848 32.3234 137.848 32.7443V33.4205C137.848 33.9972 137.948 34.486 138.146 34.8871C138.349 35.2848 138.629 35.5881 138.987 35.7969C139.345 36.0024 139.761 36.1051 140.235 36.1051C140.543 36.1051 140.821 36.062 141.07 35.9759C141.322 35.8864 141.539 35.7538 141.721 35.5781C141.903 35.3991 142.044 35.1771 142.144 34.9119L143.277 35.2301C143.158 35.6146 142.957 35.9527 142.676 36.2443C142.394 36.5327 142.046 36.758 141.632 36.9205C141.217 37.0795 140.752 37.1591 140.235 37.1591ZM151.043 29.3636L148.219 37H147.026L144.202 29.3636H145.475L147.583 35.4489H147.662L149.77 29.3636H151.043ZM155.369 37.1591C154.634 37.1591 153.999 36.9967 153.465 36.6719C152.935 36.3438 152.526 35.8864 152.237 35.2997C151.952 34.7098 151.81 34.0237 151.81 33.2415C151.81 32.4593 151.952 31.7699 152.237 31.1733C152.526 30.5734 152.927 30.1061 153.44 29.7713C153.957 29.4332 154.561 29.2642 155.25 29.2642C155.648 29.2642 156.04 29.3305 156.428 29.4631C156.816 29.5956 157.169 29.8111 157.487 30.1094C157.805 30.4044 158.059 30.7955 158.248 31.2827C158.437 31.7699 158.531 32.3698 158.531 33.0824V33.5795H152.645V32.5653H157.338C157.338 32.1345 157.252 31.75 157.08 31.4119C156.911 31.0739 156.669 30.8071 156.354 30.6115C156.042 30.416 155.674 30.3182 155.25 30.3182C154.783 30.3182 154.378 30.4342 154.037 30.6662C153.699 30.8949 153.439 31.1932 153.256 31.5611C153.074 31.929 152.983 32.3234 152.983 32.7443V33.4205C152.983 33.9972 153.082 34.486 153.281 34.8871C153.483 35.2848 153.763 35.5881 154.121 35.7969C154.479 36.0024 154.895 36.1051 155.369 36.1051C155.678 36.1051 155.956 36.062 156.205 35.9759C156.456 35.8864 156.674 35.7538 156.856 35.5781C157.038 35.3991 157.179 35.1771 157.278 34.9119L158.412 35.2301C158.293 35.6146 158.092 35.9527 157.81 36.2443C157.529 36.5327 157.181 36.758 156.766 36.9205C156.352 37.0795 155.886 37.1591 155.369 37.1591ZM161.339 26.8182V37H160.166V26.8182H161.339ZM167.105 37V36.1051L170.466 32.4261C170.86 31.9953 171.185 31.6207 171.44 31.3026C171.695 30.9811 171.884 30.6795 172.007 30.3977C172.133 30.1127 172.196 29.8144 172.196 29.5028C172.196 29.1449 172.109 28.835 171.937 28.5732C171.768 28.3113 171.536 28.1091 171.241 27.9666C170.946 27.8241 170.615 27.7528 170.247 27.7528C169.856 27.7528 169.514 27.834 169.223 27.9964C168.934 28.1555 168.711 28.3793 168.551 28.6676C168.396 28.956 168.318 29.294 168.318 29.6818H167.145C167.145 29.0852 167.282 28.5616 167.557 28.1108C167.832 27.66 168.207 27.3087 168.681 27.0568C169.158 26.8049 169.693 26.679 170.287 26.679C170.883 26.679 171.412 26.8049 171.873 27.0568C172.333 27.3087 172.694 27.6484 172.956 28.076C173.218 28.5036 173.349 28.9792 173.349 29.5028C173.349 29.8774 173.281 30.2436 173.145 30.6016C173.013 30.9562 172.781 31.3523 172.449 31.7898C172.121 32.224 171.665 32.7543 171.082 33.3807L168.795 35.8267V35.9062H173.528V37H167.105Z" fill="#0E1829"/>
<path d="M202.433 37L201.668 36.2443L204.82 33.0923H196.656V31.9986H204.82L201.668 28.8565L202.433 28.0909L206.888 32.5455L202.433 37Z" fill="#858D80"/>
<mask id="path-11-inside-4_2061_2034" fill="white">
<path d="M215.438 21C215.438 18.7909 217.228 17 219.438 17H283.438C285.647 17 287.438 18.7909 287.438 21V43C287.438 45.2091 285.647 47 283.438 47H219.438C217.228 47 215.438 45.2091 215.438 43V21Z"/>
</mask>
<path d="M215.438 21C215.438 18.7909 217.228 17 219.438 17H283.438C285.647 17 287.438 18.7909 287.438 21V43C287.438 45.2091 285.647 47 283.438 47H219.438C217.228 47 215.438 45.2091 215.438 43V21Z" fill="#F7F7F0"/>
<path d="M219.438 17V18H283.438V17V16H219.438V17ZM287.438 21H286.438V43H287.438H288.438V21H287.438ZM283.438 47V46H219.438V47V48H283.438V47ZM215.438 43H216.438V21H215.438H214.438V43H215.438ZM219.438 47V46C217.781 46 216.438 44.6569 216.438 43H215.438H214.438C214.438 45.7614 216.676 48 219.438 48V47ZM287.438 43H286.438C286.438 44.6569 285.094 46 283.438 46V47V48C286.199 48 288.438 45.7614 288.438 43H287.438ZM283.438 17V18C285.094 18 286.438 19.3431 286.438 21H287.438H288.438C288.438 18.2386 286.199 16 283.438 16V17ZM219.438 17V16C216.676 16 214.438 18.2386 214.438 21H215.438H216.438C216.438 19.3431 217.781 18 219.438 18V17Z" fill="#BEC6B9" mask="url(#path-11-inside-4_2061_2034)"/>
<path d="M229.67 37V26.8182H230.903V35.9062H235.636V37H229.67ZM240.438 37.1591C239.702 37.1591 239.067 36.9967 238.534 36.6719C238.003 36.3438 237.594 35.8864 237.306 35.2997C237.021 34.7098 236.878 34.0237 236.878 33.2415C236.878 32.4593 237.021 31.7699 237.306 31.1733C237.594 30.5734 237.995 30.1061 238.509 29.7713C239.026 29.4332 239.629 29.2642 240.318 29.2642C240.716 29.2642 241.109 29.3305 241.497 29.4631C241.884 29.5956 242.237 29.8111 242.556 30.1094C242.874 30.4044 243.127 30.7955 243.316 31.2827C243.505 31.7699 243.6 32.3698 243.6 33.0824V33.5795H237.713V32.5653H242.406C242.406 32.1345 242.32 31.75 242.148 31.4119C241.979 31.0739 241.737 30.8071 241.422 30.6115C241.11 30.416 240.743 30.3182 240.318 30.3182C239.851 30.3182 239.447 30.4342 239.105 30.6662C238.767 30.8949 238.507 31.1932 238.325 31.5611C238.142 31.929 238.051 32.3234 238.051 32.7443V33.4205C238.051 33.9972 238.151 34.486 238.35 34.8871C238.552 35.2848 238.832 35.5881 239.19 35.7969C239.548 36.0024 239.964 36.1051 240.438 36.1051C240.746 36.1051 241.024 36.062 241.273 35.9759C241.525 35.8864 241.742 35.7538 241.924 35.5781C242.106 35.3991 242.247 35.1771 242.347 34.9119L243.48 35.2301C243.361 35.6146 243.16 35.9527 242.879 36.2443C242.597 36.5327 242.249 36.758 241.835 36.9205C241.42 37.0795 240.955 37.1591 240.438 37.1591ZM251.246 29.3636L248.422 37H247.229L244.405 29.3636H245.678L247.786 35.4489H247.865L249.973 29.3636H251.246ZM255.572 37.1591C254.837 37.1591 254.202 36.9967 253.668 36.6719C253.138 36.3438 252.729 35.8864 252.44 35.2997C252.155 34.7098 252.013 34.0237 252.013 33.2415C252.013 32.4593 252.155 31.7699 252.44 31.1733C252.729 30.5734 253.13 30.1061 253.643 29.7713C254.161 29.4332 254.764 29.2642 255.453 29.2642C255.851 29.2642 256.244 29.3305 256.631 29.4631C257.019 29.5956 257.372 29.8111 257.69 30.1094C258.009 30.4044 258.262 30.7955 258.451 31.2827C258.64 31.7699 258.734 32.3698 258.734 33.0824V33.5795H252.848V32.5653H257.541C257.541 32.1345 257.455 31.75 257.283 31.4119C257.114 31.0739 256.872 30.8071 256.557 30.6115C256.245 30.416 255.877 30.3182 255.453 30.3182C254.986 30.3182 254.581 30.4342 254.24 30.6662C253.902 30.8949 253.642 31.1932 253.46 31.5611C253.277 31.929 253.186 32.3234 253.186 32.7443V33.4205C253.186 33.9972 253.286 34.486 253.484 34.8871C253.687 35.2848 253.967 35.5881 254.325 35.7969C254.683 36.0024 255.098 36.1051 255.572 36.1051C255.881 36.1051 256.159 36.062 256.408 35.9759C256.66 35.8864 256.877 35.7538 257.059 35.5781C257.241 35.3991 257.382 35.1771 257.482 34.9119L258.615 35.2301C258.496 35.6146 258.295 35.9527 258.013 36.2443C257.732 36.5327 257.384 36.758 256.969 36.9205C256.555 37.0795 256.089 37.1591 255.572 37.1591ZM261.542 26.8182V37H260.369V26.8182H261.542ZM270.748 37.1392C270.092 37.1392 269.507 37.0265 268.993 36.8011C268.483 36.5758 268.077 36.2625 267.775 35.8615C267.477 35.4571 267.315 34.9882 267.288 34.4545H268.541C268.567 34.7827 268.68 35.0661 268.879 35.3047C269.078 35.54 269.338 35.7223 269.659 35.8516C269.981 35.9808 270.337 36.0455 270.728 36.0455C271.166 36.0455 271.554 35.9692 271.892 35.8168C272.23 35.6643 272.495 35.4522 272.687 35.1804C272.879 34.9086 272.975 34.5938 272.975 34.2358C272.975 33.8613 272.883 33.5315 272.697 33.2464C272.511 32.9581 272.24 32.7327 271.882 32.5703C271.524 32.4079 271.086 32.3267 270.569 32.3267H269.754V31.233H270.569C270.974 31.233 271.328 31.16 271.633 31.0142C271.941 30.8684 272.182 30.6629 272.354 30.3977C272.53 30.1326 272.618 29.821 272.618 29.4631C272.618 29.1184 272.541 28.8184 272.389 28.5632C272.236 28.308 272.021 28.1091 271.743 27.9666C271.467 27.8241 271.143 27.7528 270.768 27.7528C270.417 27.7528 270.085 27.8175 269.774 27.9467C269.466 28.0727 269.214 28.2566 269.018 28.4986C268.823 28.7372 268.717 29.0256 268.7 29.3636H267.507C267.527 28.83 267.687 28.3627 267.989 27.9616C268.291 27.5573 268.685 27.2424 269.172 27.017C269.663 26.7917 270.201 26.679 270.788 26.679C271.418 26.679 271.958 26.8066 272.409 27.0618C272.859 27.3137 273.206 27.6468 273.448 28.0611C273.69 28.4754 273.811 28.9228 273.811 29.4034C273.811 29.9768 273.66 30.4657 273.358 30.87C273.06 31.2744 272.654 31.5545 272.14 31.7102V31.7898C272.783 31.8958 273.285 32.1693 273.647 32.6101C274.008 33.0476 274.189 33.5895 274.189 34.2358C274.189 34.7893 274.038 35.2865 273.736 35.7273C273.438 36.1648 273.03 36.5095 272.513 36.7614C271.996 37.0133 271.408 37.1392 270.748 37.1392Z" fill="#0E1829"/>
</svg>
